<?xml version="1.0" encoding="UTF-8"?> <svg xmlns="http://www.w3.org/2000/svg" viewBox="0 0 973.5 528.15"><style>.st0{fill:none;stroke:#d8e9f7;stroke-linecap:round;stroke-linejoin:round;stroke-miterlimit:10}.st1{fill:#d8e9f7}.st2,.st3,.st4,.st5{fill:#abb833;stroke:#3e4147;stroke-width:.75;stroke-linecap:round;stroke-linejoin:round;stroke-miterlimit:10}.st3,.st4,.st5{fill:#959e33}.st4,.st5{fill:none}.st5{fill:#f7c9a1}.st6{fill:#e39d74}.st7{fill:#3e4147;stroke:#3e4147;stroke-width:.75;stroke-linecap:round;stroke-linejoin:round;stroke-miterlimit:10}.st8{fill:#ff9d98}.st9{fill:#3e4147}.st10{fill:#e47e95}.st11{fill:#dee4eb}.st12{fill:#c4d7e9}.st13,.st14,.st15{fill:#e47e95;stroke:#3e4147;stroke-width:.75;stroke-linecap:round;stroke-linejoin:round;stroke-miterlimit:10}.st14,.st15{fill:#555556}.st15{fill:#ff9d98}.st17{fill:#af96c1}.st21{fill:#a7a9ac;stroke:#3e4147;stroke-width:.75;stroke-linecap:round;stroke-linejoin:round;stroke-miterlimit:10}.st22{fill:#e6e7e8}.st26{fill:#70b1de}.st27{fill:#fff}.st30,.st31{fill:#624a32;stroke:#3e4147;stroke-width:.75;stroke-linecap:round;stroke-linejoin:round;stroke-miterlimit:10}.st31{fill:#83603c}.st32{fill:#a57f53}.st36{fill:#959e33}</style><g id="COLOR"><path class="st0" d="M507.77 368h-182M292.77 315h-182M293.77 429h-67M345.77 66h-67M65.77 380h-67M453.77 248h-18M486.77 508h-18M21.77 516h-18M406.77 283h-34"></path><path class="st1" d="M753.12 414.19c2.31 0 123.33.92 123.33.92-2.31-14.69-16.19-10.56-20.04-8.26-11.56-23.42-47.64-33.84-70.92-.92-12.33-7.81-26.98-1.85-32.37 8.26zM169.72 113s-143.78 1.33-143.78 0c6.67-37.33 36-20.67 36-20.67C64.7 50.1 124.7 45.6 134.61 87c11.49-5.1 28.44-2 35.11 26zM796.44 150.34c7.33-39.33 24-37.33 34-24 6-61.33 71.33-78.67 92-20 23.33-3.33 29.43 24.97 29.43 24.97 15.24-4.3 19.9 18.37 19.9 18.37l-175.33.66zM319.77 239.67c-2 0-106.67 1.33-106.67 1.33 2-21.33 14-15.33 17.33-12 10-34 46.67-38 61.33-1.33 10.68-11.33 23.34-2.67 28.01 12z"></path><path class="st2" d="M244.56 496.74c.99-.32 1.95-.66 2.9-1.02 9.44 5.81 9.14 19.09 29.78 12.64-.58.32.6-.31 0 0-34.16 17.78-50.31 10.32-50.31 10.32L179.2 503.2c-.01-.01 28.81 6.44 65.36-6.46z"></path><path class="st3" d="M194.98 476.34c24.25 21.21 45.41 33.69 82.26 32.01-42.34 23.52-88.58 10.99-127.09-14.21 16.16-1.56 32.15-7.7 44.83-17.8z"></path><path class="st4" d="M263.49 514.34c-4.19-.38-2.67-3.81-2.67-3.81s-38.83-6.09-56.73-21.32c0 0-9.52 2.28-13.33-5.33-12.56 10.66-27.41 12.18-27.41 12.18 4.95 3.81 4.38 8.37 4.38 8.37"></path><ellipse transform="rotate(-68.41 210.9 508.58)" class="st4" cx="210.9" cy="508.56" rx="6.79" ry="17.19"></ellipse><path class="st2" d="M45.41 418c.16-.52.3-1.04.43-1.56 5.9-1.38 12.36 4.09 15.81-6.64-.03.36.04-.36 0 0-2.2 20.62-11.07 23.98-11.07 23.98l-22.99 12.56c0 .01 12.44-8.74 17.82-28.34z"></path><path class="st3" d="M19.4 429.31c18.27-1.01 31.23-4.31 42.25-19.5-1.99 26.16-23.04 39.32-47.87 44.33 4.42-7 6.53-15.77 5.62-24.83z"></path><path class="st4" d="M60.18 417.64c-1.53 1.5-2.74-.48-2.74-.48S41.95 430 28.68 430.91c0 0-1.93 4.67-6.92 3.1 1.23 9.25-2.79 15.71-2.79 15.71 3.47-.42 5.54 1.65 5.54 1.65"></path><ellipse transform="rotate(-22.01 40.44 436.08)" class="st4" cx="40.43" cy="436.02" rx="9.1" ry="4.16"></ellipse><path class="st5" d="M682.1 123.67c7.33-13 7.67-13.67 11-20s4.67-11.33 5.33-13.33 3-3.67 9.33-15.33c6.33-11.67 8.33-18.67 12-26.67s3.33-10 6.67-13.33c3.33-3.33 3.33-3 4-6s.67-4.33 1-7 1-4.33 1-4.33 3-.33 3-3c1-3 1-5.67 1-5.67s-7-8.63-9.33-8.63-6.67 2.63-8 3.29c-1.33.67-5.67 1.33-6 3-.33 1.67 1 19.33.67 21.33-.33 2-7.67 15-14.67 23.33S686.44 67 685.44 71s-3.67 13-4.33 14c-.67 1-8.67 9.67-9.33 11-.67 1.33-13.33 28.67-13.33 28.67l5.33 6"></path><path class="st6" d="M673.18 118.73s15.09-18.98 17.59-22.98 3.5-8.5 4.25-11.75 1.5-8.25 2-9.5 7.75-8.25 9.25-10.75 8-15.75 9.5-19.5 1-10.5 1-10.5 3.75 0 4.25-2 1.5-6.75 1.5-6.75 4-6.25 4.5-7.25 2.75-3.75 1.5-4.75-11.5-4.25-11.5-4.25 8.4 1.63 10.25-.5c1.09-1.26 5-.77 8.06-.57.68.79 1.11 1.32 1.11 1.32s0 2.67-1 5.67c0 2.67-3 3-3 3s-.67 1.67-1 4.33c-.33 2.67-.33 4-1 7-.67 3-.67 2.67-4 6s-3 5.33-6.67 13.33-5.67 15-12 26.67c-6.33 11.67-8.67 13.33-9.33 15.33-.67 2-2 7-5.33 13.33s-3.67 7-11 20l-8.15 3.11-.78-8.04z"></path><path class="st4" d="M682.1 123.67c7.33-13 7.67-13.67 11-20s4.67-11.33 5.33-13.33 3-3.67 9.33-15.33c6.33-11.67 8.33-18.67 12-26.67s3.33-10 6.67-13.33c3.33-3.33 3.33-3 4-6s.67-4.33 1-7 1-4.33 1-4.33 3-.33 3-3c1-3 1-5.67 1-5.67s-7-8.63-9.33-8.63-6.67 2.63-8 3.29c-1.33.67-5.67 1.33-6 3-.33 1.67 1 19.33.67 21.33-.33 2-7.67 15-14.67 23.33S686.44 67 685.44 71s-3.67 13-4.33 14c-.67 1-8.67 9.67-9.33 11-.67 1.33-13.33 28.67-13.33 28.67l5.33 6"></path><path class="st7" d="M750.89 268.44c-11.76-17.25-37.63-25.32-54.22-22.82-16.59 2.5 15.59 33.12 16.82 33.73 1.23.61 27.32 6.49 30.41 7.78"></path><path class="st8" d="M691.27 248.5c19.5-14 27-15 32-14.5s7.5 20.5 5.5 32.5"></path><path class="st9" d="M727.09 238.04c-.28-.76-.63-1.49-1.04-2.19a5.32 5.32 0 0 0-1.67-1.84c-.2-.09-.39-.21-.61-.27-.22-.05-.46-.11-.64-.12-.39-.03-.78-.07-1.16-.07-.77-.02-1.55 0-2.31.08-3.05.3-5.84 1.31-8.42 2.4a92.09 92.09 0 0 0-13.5 7.6c-3.79 2.57-6.07 4.38-6.47 4.87.6-.15 3.03-1.82 6.84-4.3a92.39 92.39 0 0 1 13.46-7.51c2.55-1.07 5.28-2.05 8.2-2.32.73-.08 1.46-.1 2.2-.07.37 0 .74.04 1.11.07.2 0 .32.06.48.09.15.05.29.13.44.2 1.14.76 1.82 2.24 2.39 3.65 1 2.64 1.53 5.39 1.93 8.06.39 2.67.61 5.28.7 7.79.3 6.94-.4 11.58-.26 12.35.37-.72 1.26-5.33 1-12.38a75.9 75.9 0 0 0-.7-7.85c-.4-2.71-.93-5.5-1.97-8.24z"></path><path class="st10" d="M711.65 255.61c7.11-18.06 11.83-19.64 11.83-19.64s5.51 1.04 2.81 28.71"></path><path class="st9" d="M719.98 240.98a48.39 48.39 0 0 1 2.06-2.86c.36-.44.7-.86 1.04-1.24l.25-.28.12-.14.02-.03c.01-.03.03-.04.05-.01l.11.11c.6.63.99 1.33 1.24 1.94.49 1.24.49 2.13.57 2.44.11-.27.28-1.21-.14-2.58a6 6 0 0 0-1.23-2.2c-.05-.07-.23-.24-.38-.39-.08-.06-.16-.18-.24-.2l-.23.24-.63.67c-.36.38-.71.8-1.09 1.24-.66.78-1.4 1.75-2.16 2.88-.33.52-.66 1.02-.92 1.49a36.37 36.37 0 0 0-3.47 7.86c-.62 2.06-.82 3.42-.78 3.81.22-.35.58-1.65 1.3-3.64a43.8 43.8 0 0 1 3.58-7.65l.93-1.46z"></path><path class="st11" d="M689.27 143.5c-7-27.5-17.5-86.5-19.5-104.5-2.5-12.5-6 40-5.5 38.5s-7-34-9-42-7.5-6-8-1 1 49.5 1 49.5l-2.5 18.5s-19-43-23-55.5-8-2-6.5 10 8 41 8 42.5 8.5 26.5 8 25-20-33.5-23.5-41-6.5-3-5.5 2 4.5 13.5 5 16 8.5 20.5 9 24 5 28.5 6 33 0 13 2 17.5 26 51 26.5 52.5"></path><path class="st9" d="M631.71 121.69c-2.26-6.76-4.55-13.49-6.58-20.24l-4.19-20.6a503.7 503.7 0 0 1-3.8-20.43c-.26-1.7-.52-3.4-.67-5.09a39.28 39.28 0 0 1-.11-5.09c.07-1.69.26-3.37.65-5 .2-.81.44-1.61.82-2.31.36-.69.93-1.35 1.5-1.16.7.22 1.28 1.1 1.71 1.9.45.83.79 1.73 1.11 2.63.62 1.82 1.25 3.69 1.94 5.5 1.36 3.64 2.8 7.23 4.25 10.8 2.91 7.14 5.9 14.19 8.9 21.17l4.51 10.43 2.26 5.18 1.37 3.12.57 1.28c.03.1.03-.02.04-.06l.02-.17.05-.35.09-.69.28-2.04 1.5-11.11.37-2.76.19-1.38.09-.69.05-.34c.01-.07.02-.09.02-.23l-.01-.18-.18-5.55-.63-22.01-.23-10.88c-.04-3.6-.14-7.24.03-10.76.1-.85.33-1.67.74-2.4a3.44 3.44 0 0 1 1.78-1.57c.74-.27 1.57-.1 2.21.37a5.7 5.7 0 0 1 1.56 1.93c.8 1.51 1.11 3.27 1.55 4.99l1.23 5.16c1.61 6.88 3.17 13.72 4.64 20.51.73 3.4 1.45 6.79 2.08 10.17.15.85.3 1.69.41 2.53l.07.62.02.3v.15c-.07-.02.06.06.24.11-.04.16.53-.11.42-.04v-.51l.02-.64c.06-1.71.17-3.42.27-5.12.45-6.82 1-13.58 1.71-20.26.37-3.34.76-6.66 1.36-9.92.15-.81.32-1.62.55-2.4.11-.37.26-.8.41-1.04.04 0-.02-.16.18.3.13.35.22.75.31 1.15.06.34.1.81.15 1.2l.3 2.47c.87 6.56 1.91 13.03 2.96 19.44 2.11 12.81 4.39 25.36 6.73 37.64a977.48 977.48 0 0 0 7.49 35.99c1.07 4.44 1.91 7.24 2.22 7.78.07-.61-.58-3.49-1.56-7.94a985.43 985.43 0 0 1-7.5-36.13c-2.35-12.32-4.62-24.9-6.74-37.75a591.09 591.09 0 0 1-2.94-19.47l-.3-2.46-.08-.62-.02-.15-.03-.19-.07-.31c-.1-.42-.2-.83-.42-1.27a1.06 1.06 0 0 0-.36-.41.58.58 0 0 0-.54-.04c-.17.07-.31.24-.41.38a7.88 7.88 0 0 0-.59 1.56c-.22.82-.38 1.65-.54 2.47-.59 3.31-.97 6.65-1.34 10a513.44 513.44 0 0 0-1.71 20.32c-.1 1.71-.21 3.42-.26 5.15l-.01.66.01.2c.06-.22-.24.57.71.18.07-.14.03-.11.05-.17.03-.17.03-.32.02-.42-.02-.47-.09-.89-.15-1.32-.13-.86-.28-1.71-.44-2.56-.64-3.4-1.36-6.79-2.09-10.2-1.48-6.8-3.03-13.64-4.65-20.52l-1.23-5.17c-.42-1.7-.79-3.51-1.73-5.13a5.12 5.12 0 0 0-1.96-2.04 3.1 3.1 0 0 0-2.9-.06 4.5 4.5 0 0 0-1.96 2.09c-.23.42-.35.88-.49 1.34-.07.46-.18.94-.18 1.39-.15 3.63-.05 7.21-.01 10.83l.23 10.88.63 21.97.09 2.77.05 1.39.02.69.01.35.01.17v.02l-.01.09-.74 5.51-1.5 11.08-.06.48c0 .01 0 0 0 0l-1-2.27-2.25-5.16-4.49-10.39c-2.98-6.96-5.96-13.98-8.85-21.08a356.45 356.45 0 0 1-4.22-10.73c-.69-1.81-1.29-3.61-1.92-5.46a19.6 19.6 0 0 0-1.16-2.73 9.31 9.31 0 0 0-.83-1.28c-.35-.39-.73-.8-1.35-.98-.54-.17-1.16.07-1.51.41-.37.34-.62.73-.84 1.13-.42.8-.67 1.64-.88 2.49a27.2 27.2 0 0 0-.66 5.15c-.08 1.73-.03 3.46.12 5.19.15 1.73.41 3.43.67 5.14a513.52 513.52 0 0 0 3.81 20.47l4.2 20.65c2.04 6.77 4.32 13.49 6.58 20.25l.54 1.59.27.79.07.2.03.1.02.05c.25-.21-.56.52.72-.23-.05-.14-.13-.28-.19-.41-.54-1.05-1.09-1.98-1.65-2.96l-3.38-5.77-6.76-11.46c-2.24-3.81-4.46-7.62-6.64-11.43-1.08-1.91-2.16-3.82-3.2-5.74a66.3 66.3 0 0 1-1.5-2.9c-.48-.97-.96-2-1.65-2.91-.34-.46-.72-.9-1.22-1.25a2.72 2.72 0 0 0-.86-.4c-.33-.07-.7-.06-1.02.07-.66.27-1.04.83-1.29 1.36-.25.54-.39 1.1-.48 1.67-.16 1.13-.09 2.27.13 3.37.22 1.08.51 2.13.81 3.18 1.21 4.18 2.86 8.22 4.06 12.29.11.47.26 1.09.45 1.58.17.52.37 1.02.56 1.53l1.18 3 2.41 5.95 2.36 5.93c.74 1.98 1.55 3.97 2.05 5.96a1745.9 1745.9 0 0 0 4.42 24.81l1.16 6.13.61 3.04c.18.99.27 2.01.33 3.04.26 4.09.04 8.26 1.02 12.34.24 1.03.71 2 1.15 2.91l1.36 2.75 2.74 5.45 5.48 10.79 10.83 21.24c3.17 6.2 5.36 10.35 5.87 10.93-.07-.84-2.06-5.01-5.21-11.26l-10.8-21.19-5.47-10.77-2.73-5.43-1.35-2.73c-.44-.92-.89-1.8-1.11-2.77-.98-3.89-.77-8.05-1.02-12.17a27.49 27.49 0 0 0-.32-3.12l-.61-3.05-1.16-6.12c-1.51-8.19-3.01-16.44-4.42-24.81-.51-2.14-1.31-4.08-2.06-6.09l-2.36-5.95-2.41-5.95c-.77-1.99-1.66-3.98-2.17-6-.57-2.13-1.34-4.13-2.04-6.18a147.4 147.4 0 0 1-2.03-6.15c-.57-2.07-1.27-4.17-.98-6.24.07-.51.18-1.02.38-1.47.19-.45.48-.87.85-1.05.73-.38 1.66.4 2.25 1.21.64.83 1.11 1.79 1.59 2.77.48 1 .99 1.97 1.52 2.94 1.04 1.94 2.12 3.85 3.21 5.77 2.18 3.83 4.41 7.64 6.66 11.46l6.78 11.49 3.39 5.78c.55.96 1.14 1.95 1.62 2.89l.17.34c-.19.09 1.3-.45.71-.24l-.02-.05-.03-.1-.07-.2-.27-.8-.54-1.59z"></path><path class="st12" d="M680 240.12c6.77-17.12 31.27-25.12 33.77-44.62 0-10-13-28.5-19-48-9-26-10.5-4.5-10.5-4.5s-10.5-4-14 14c-2 5-3.5 12.5-3.5 12.5s-8.5-2.5-10 11.5c-5.5.5-11.5 20.5-11.5 27s5.5 39 5.5 39"></path><path class="st9" d="M667.64 167.29a95.9 95.9 0 0 1 2.23-8.09l.46-1.31.25-.64.03-.08a.41.41 0 0 0 .04-.15l.04-.17.08-.34c.73-3.59 1.92-7.16 4.16-9.95a9.35 9.35 0 0 1 4.18-3.08 6 6 0 0 1 1.26-.33c.42-.1.86-.1 1.29-.14.43.01.87.01 1.29.08.22.02.43.07.63.11l.18.04.31.1.32.1c.1.02.26.14.23-.04.08-1.05.11-1.25.17-1.74l.19-1.32c.15-.87.33-1.74.58-2.58.25-.83.57-1.66 1.07-2.26.26-.29.55-.48.86-.47.31.03.66.2.96.46 1.22 1.1 2.06 2.72 2.82 4.26a59.98 59.98 0 0 1 2.04 4.82c1.26 3.23 2.19 6.6 3.46 9.8 2.47 6.43 5.4 12.54 8.28 18.51 1.44 2.98 2.87 5.94 4.2 8.9a63.2 63.2 0 0 1 3.39 8.98c.43 1.52.68 3.06.75 4.6a22.45 22.45 0 0 1-.97 4.48 29.01 29.01 0 0 1-4.2 8.1c-3.59 4.91-8.12 8.87-12.46 12.76-4.35 3.89-8.67 7.72-12.03 12.24-2.75 3.72-3.64 6.6-3.73 7.2.45-.43 1.51-3.2 4.28-6.79 3.33-4.46 7.64-8.28 12.02-12.19 4.37-3.91 8.96-7.91 12.6-12.94 1.8-2.52 3.34-5.3 4.28-8.35.47-1.53.86-3.04.94-4.73-.07-.81-.08-1.63-.27-2.41-.15-.79-.3-1.59-.55-2.36a66.31 66.31 0 0 0-3.46-9.09 376.92 376.92 0 0 0-4.22-8.92c-2.87-5.97-5.8-12.06-8.23-18.46-1.26-3.18-2.17-6.51-3.46-9.79a57.24 57.24 0 0 0-2.08-4.86c-.39-.8-.81-1.59-1.3-2.35a7.78 7.78 0 0 0-1.8-2.11 2.04 2.04 0 0 0-1.5-.47c-.58.08-1.04.47-1.32.86-.6.79-.88 1.68-1.15 2.55a24.77 24.77 0 0 0-.77 4.01l-.07.68-.01.11-.03-.01-.32-.07c-.23-.06-.46-.08-.7-.11-.47-.06-.94-.08-1.41-.06-.47.02-.94.06-1.4.17-.47.06-.91.24-1.36.38-1.79.65-3.29 1.9-4.44 3.37-2.34 2.96-3.52 6.6-4.25 10.24l-.08.34c-.03.15-.03.12-.08.27l-.25.65-.47 1.32c-.29.89-.58 1.78-.83 2.68-.52 1.8-.98 3.61-1.4 5.44l-.29 1.29-.14.64c-.01.02.01.01-.01.01l-.23-.03-.34-.04c-.23-.01-.46-.04-.68-.02-.45 0-.9.06-1.35.14a7.49 7.49 0 0 0-4.3 2.69 13.82 13.82 0 0 0-2.57 5.75c-.29 1.01-.38 2.05-.54 3.07l-.01.09v-.01l-.17.03c-.28.07-.54.19-.79.31a6 6 0 0 0-1.3.98 19.47 19.47 0 0 0-3.44 5.13 51.98 51.98 0 0 0-2.35 5.58 70.33 70.33 0 0 0-3.1 11.47c-.17.97-.29 1.94-.36 2.92-.07.99.01 1.97.07 2.94.15 1.93.38 3.82.61 5.7.85 6.65 1.86 13.17 2.79 19.06 1.11 6.89 1.98 11.49 2.36 12.18.12-.81-.56-5.36-1.63-12.3a677.7 677.7 0 0 1-2.78-19.04c-.23-1.86-.46-3.75-.61-5.64-.07-.95-.14-1.89-.08-2.83.06-.94.19-1.89.35-2.84.66-3.8 1.72-7.6 3.06-11.33a51 51 0 0 1 2.32-5.51 19.1 19.1 0 0 1 3.29-4.94c.34-.35.73-.64 1.13-.87.2-.11.41-.19.63-.26l.56-.11.09-.02.02-.09.03-.19.05-.32c.16-1 .25-2.02.53-2.99a13.03 13.03 0 0 1 2.43-5.47 6.71 6.71 0 0 1 3.86-2.42c.4-.07.8-.13 1.21-.12.2-.01.41.01.61.02l.3.03c.12.02.15.01.41.07l.32.07c.1.02.24.1.23-.06l.13-.64.14-.64.27-1.29z"></path><path class="st1" d="M698.5 209.15c2.33-11.63-4.06-15.48-7.4-41.48-1.94-15.14-2.74-26.54-.7-30.33 1.21 1.98 2.65 5.21 4.37 10.16 6 19.5 19 38 19 48-1.61 12.55-12.33 20.34-21.57 28.85 3.16-6.24 5.62-11.84 6.3-15.2zM687.77 216.34s-7.33-6-10.67-20.67c-3.33-14.67-5.06-45.38 6.78-47.29 0 0-2.11 6.62 1.89 27.96 4 22 2 40 2 40z"></path><path class="st9" d="M667.64 167.29a95.9 95.9 0 0 1 2.23-8.09l.46-1.31.25-.64.03-.08a.41.41 0 0 0 .04-.15l.04-.17.08-.34c.73-3.59 1.92-7.16 4.16-9.95a9.35 9.35 0 0 1 4.18-3.08 6 6 0 0 1 1.26-.33c.42-.1.86-.1 1.29-.14.43.01.87.01 1.29.08.22.02.43.07.63.11l.18.04.31.1.32.1c.1.02.26.14.23-.04.08-1.05.11-1.25.17-1.74l.19-1.32c.15-.87.33-1.74.58-2.58.25-.83.57-1.66 1.07-2.26.26-.29.55-.48.86-.47.31.03.66.2.96.46 1.22 1.1 2.06 2.72 2.82 4.26a59.98 59.98 0 0 1 2.04 4.82c1.26 3.23 2.19 6.6 3.46 9.8 2.47 6.43 5.4 12.54 8.28 18.51 1.44 2.98 2.87 5.94 4.2 8.9a63.2 63.2 0 0 1 3.39 8.98c.43 1.52.68 3.06.75 4.6a22.45 22.45 0 0 1-.97 4.48 29.01 29.01 0 0 1-4.2 8.1c-3.59 4.91-8.12 8.87-12.46 12.76-4.35 3.89-8.67 7.72-12.03 12.24-2.75 3.72-3.64 6.6-3.73 7.2.45-.43 1.51-3.2 4.28-6.79 3.33-4.46 7.64-8.28 12.02-12.19 4.37-3.91 8.96-7.91 12.6-12.94 1.8-2.52 3.34-5.3 4.28-8.35.47-1.53.86-3.04.94-4.73-.07-.81-.08-1.63-.27-2.41-.15-.79-.3-1.59-.55-2.36a66.31 66.31 0 0 0-3.46-9.09 376.92 376.92 0 0 0-4.22-8.92c-2.87-5.97-5.8-12.06-8.23-18.46-1.26-3.18-2.17-6.51-3.46-9.79a57.24 57.24 0 0 0-2.08-4.86c-.39-.8-.81-1.59-1.3-2.35a7.78 7.78 0 0 0-1.8-2.11 2.04 2.04 0 0 0-1.5-.47c-.58.08-1.04.47-1.32.86-.6.79-.88 1.68-1.15 2.55a24.77 24.77 0 0 0-.77 4.01l-.07.68-.01.11-.03-.01-.32-.07c-.23-.06-.46-.08-.7-.11-.47-.06-.94-.08-1.41-.06-.47.02-.94.06-1.4.17-.47.06-.91.24-1.36.38-1.79.65-3.29 1.9-4.44 3.37-2.34 2.96-3.52 6.6-4.25 10.24l-.08.34c-.03.15-.03.12-.08.27l-.25.65-.47 1.32c-.29.89-.58 1.78-.83 2.68-.52 1.8-.98 3.61-1.4 5.44l-.29 1.29-.14.64c-.01.02.01.01-.01.01l-.23-.03-.34-.04c-.23-.01-.46-.04-.68-.02-.45 0-.9.06-1.35.14a7.49 7.49 0 0 0-4.3 2.69 13.82 13.82 0 0 0-2.57 5.75c-.29 1.01-.38 2.05-.54 3.07l-.01.09v-.01l-.17.03c-.28.07-.54.19-.79.31a6 6 0 0 0-1.3.98 19.47 19.47 0 0 0-3.44 5.13 51.98 51.98 0 0 0-2.35 5.58 70.33 70.33 0 0 0-3.1 11.47c-.17.97-.29 1.94-.36 2.92-.07.99.01 1.97.07 2.94.15 1.93.38 3.82.61 5.7.85 6.65 1.86 13.17 2.79 19.06 1.11 6.89 1.98 11.49 2.36 12.18.12-.81-.56-5.36-1.63-12.3a677.7 677.7 0 0 1-2.78-19.04c-.23-1.86-.46-3.75-.61-5.64-.07-.95-.14-1.89-.08-2.83.06-.94.19-1.89.35-2.84.66-3.8 1.72-7.6 3.06-11.33a51 51 0 0 1 2.32-5.51 19.1 19.1 0 0 1 3.29-4.94c.34-.35.73-.64 1.13-.87.2-.11.41-.19.63-.26l.56-.11.09-.02.02-.09.03-.19.05-.32c.16-1 .25-2.02.53-2.99a13.03 13.03 0 0 1 2.43-5.47 6.71 6.71 0 0 1 3.86-2.42c.4-.07.8-.13 1.21-.12.2-.01.41.01.61.02l.3.03c.12.02.15.01.41.07l.32.07c.1.02.24.1.23-.06l.13-.64.14-.64.27-1.29z"></path><path class="st9" d="M685.34 172.39a123.38 123.38 0 0 1-.95-26.44c.29-4.54.76-7.4.67-8.04-.29.53-.97 3.43-1.35 7.99a121.98 121.98 0 0 0 .89 26.6l1.95 12.8c1.07 6.88 1.86 11.51 2.23 12.21.13-.81-.47-5.39-1.5-12.32l-1.94-12.8zM667.84 192.84a123.7 123.7 0 0 1 .37-23.84c.49-4.52.96-7.39.85-8.03-.28.53-.96 3.42-1.54 7.95a120.1 120.1 0 0 0 1.09 35.57c1.25 6.88 2.76 11.36 3.17 12.01.07-.83-1.24-5.25-2.45-12.14-.61-3.54-1.17-7.42-1.49-11.52zM656.64 197.37a84.6 84.6 0 0 1 .34-11.33c.41-4.53.97-7.38.87-8.02-.29.53-1.05 3.4-1.56 7.95a77.72 77.72 0 0 0 0 16.99c.76 6.97 2.18 11.5 2.58 12.15.09-.83-1.13-5.28-1.84-12.23-.18-1.7-.32-3.55-.39-5.51z"></path><path class="st13" d="M604.27 447.5c-23 21-29 23-41 16-9.5 6.5-16.5 3-11.5-24.5s42-25 42-25"></path><path class="st14" d="M550.95 444.05c.35 1.31.6 2.68.72 4.12 1.56 18.89 8.52 17.11 11.6 15.33-8.89 6.08-15.58 3.41-12.32-19.45z"></path><path class="st10" d="M767.27 371.5c16.5 38.5 9 92-12.5 82.5-3 5.5-20-.5-41-39.5"></path><path class="st9" d="M751.47 456.12c1.15.01 2.41-.4 3.23-1.35.06-.05.09-.12.14-.18l.08-.12.66.26c.53.17 1.06.36 1.61.47 2.17.52 4.54.34 6.55-.63a13.52 13.52 0 0 0 4.96-4.18 26.33 26.33 0 0 0 3.17-5.5 53.01 53.01 0 0 0 3.4-11.83c.7-3.97 1.09-7.92 1.24-11.81.32-7.77-.21-15.26-1.27-22.35a116.8 116.8 0 0 0-4.77-19.96c-1.51-4.32-2.79-6.96-3.2-7.44.02.62 1.13 3.35 2.55 7.66a118.21 118.21 0 0 1 4.73 19.94 118.26 118.26 0 0 1 1.22 22.26 87.08 87.08 0 0 1-1.25 11.7 51.56 51.56 0 0 1-3.38 11.62 25.39 25.39 0 0 1-3.09 5.31 12.76 12.76 0 0 1-4.69 3.91 9.17 9.17 0 0 1-6.05.54c-.51-.1-1.01-.28-1.51-.45l-.88-.35-.19-.08-.09-.04c-.03 0-.04.05-.06.07l-.23.34-.13.2c-.03.05-.06.1-.11.14a3.47 3.47 0 0 1-2.66 1.07 8.48 8.48 0 0 1-2.8-.47 15.5 15.5 0 0 1-2.66-1.13c-1.71-.9-3.31-2-4.82-3.18a63.24 63.24 0 0 1-8.17-7.93 132 132 0 0 1-12.73-17.6c-3.67-5.91-5.89-10.04-6.5-10.55.18.79 2.21 4.95 5.87 10.94 3.67 5.93 7.8 11.98 12.78 17.68a64.22 64.22 0 0 0 8.27 8.03 32.13 32.13 0 0 0 4.95 3.27c.89.46 1.81.88 2.78 1.18.96.35 1.99.55 3.05.54z"></path><path class="st14" d="M727.77 428.5c15.71 16.56 31.51 23.01 45.94 9.89-3.35 12.47-9.91 19.6-18.94 15.61-2.87 5.26-18.53-.02-38.24-34.55 3.26 1.75 7.01 4.6 11.24 9.05z"></path><path class="st15" d="M474.89 280.93c-2.33-11.86-8.77-12.87-14.79-9.16-2.27 3.06-1.76 5.24 2.11 4.1 3.87-1.14 8.25 3.2 5.48 11.58"></path><path class="st13" d="M492.64 284.11c-6.56-11.32-26.39-13.9-27.67 8.34-.94 16.22 22.22 12.47 23.06 11.12"></path><path class="st8" d="M488.48 279.33c-8.64-1.43-18.33 3.22-23.52 13.51v-.39c1.08-18.59 15.11-19.83 23.52-13.12z"></path><path class="st4" d="M492.64 284.11c-6.56-11.32-26.39-13.9-27.67 8.34-.94 16.22 22.22 12.47 23.06 11.12"></path><path class="st9" d="M477.85 286.04a5.81 5.81 0 0 0-4.62 2.65 8.07 8.07 0 0 0-.76 1.53 4.78 4.78 0 0 0-.25 1.55c.02.99.3 1.82.65 2.44.73 1.27 1.63 1.67 1.92 1.75-.18-.24-.94-.75-1.51-1.95a4.97 4.97 0 0 1-.47-2.23c.01-.87.38-1.79.98-2.71a5.3 5.3 0 0 1 4.11-2.29 9.1 9.1 0 0 1 2.42.17c1.65.35 3.11.97 4.34 1.65 1.24.67 2.25 1.4 3.06 2.07 1.64 1.34 2.39 2.46 2.69 2.72-.08-.39-.72-1.66-2.33-3.13-.8-.73-1.81-1.52-3.08-2.24a15.58 15.58 0 0 0-4.53-1.79 9.6 9.6 0 0 0-2.62-.19z"></path><path class="st15" d="M464.54 348.73c-.12 29.4 10.98 54.36 35.17 78.03 38.21 37.4 159.29 50.26 226.78 7.98s68.92-109.49 31.42-153.45c-40.3-47.23-156.04-62.93-215.39-34.47-55.3 21.14-77.78 49.03-77.98 101.91z"></path><path class="st10" d="M609.27 304.5c-3 3.5-8 4.5-9.5 6s-3.5 7-4 8.5-3.5 16-3 20-1.5 5-3 4.5-4-1-4.5.5-3 14-3.5 17.5-.5 10.5-1.5 14 2.5 10-5 13.5-6.5 4.5-9.5 3-5.48-7.66-5.5-10 .5-14.5 1.5-17 8.27-29.33 8.27-29.33 7.34-28.15 12.73-38.67c5.4-10.52 12.5-21 14.5-36.5 1.52-11.8.88-19.44 3.46-27.34 14.86-1 30.41-.61 45.84 1.1-9.25 12.42-25.38 40.39-27.8 47.24-3 8.5-6.5 19.5-9.5 23z"></path><path class="st10" d="M637.89 241.02a25.78 25.78 0 0 1 4.32-2.02 16.67 16.67 0 0 0-2.19 5.59c-.47 2.51-.28 4.73.91 6.99a8 8 0 0 0 2.94 3.03c4.08 9.24 17.97 20.84 30.89 26.89 2.5-15 11.65-22.58 28.15-18.58s23.21 17.72 23.21 17.72c4.63 1.87 7.13-2.13 7.13-2.13-1.29-10.5 4-19.5 16.5-17.5s26.29 18.18 30 36c3.33 16-6.28 29.13-23.5 22-12.23-5.69-12.87-14.22-18.87-12.72-8-1.5-5.63 9.22-11.13 16.22-4.85 10.38-24 11.87-35.87-.3-2.72-2.79-5.67-5.33-7.97-8.44-6.33-2.1-24.02-8.62-34.16-18.76-21.27-21.29-22.48-47.01-10.36-53.99zM566.34 262.26a8.68 8.68 0 0 0-6.48.91c-7.31 3.98-15.4 5-23.64 4.5a356.9 356.9 0 0 1-20.4-8.68 212.46 212.46 0 0 1 26.7-12.18c17.76-8.51 40.56-13.07 64.88-14.02-13 4.9-31.51 14.15-41.06 29.47z"></path><path class="st4" d="M464.54 348.73c-.12 29.4 10.98 54.36 35.17 78.03 38.21 37.4 159.29 50.26 226.78 7.98s68.92-109.49 31.42-153.45c-40.3-47.23-156.04-62.93-215.39-34.47-55.3 21.14-77.78 49.03-77.98 101.91z"></path><path class="st10" d="M734.12 314.46l46.8 13.94c3.86 20.39.9 41.92-10.33 61.99-20.09-13.52-42.28-40.76-36.47-75.93z"></path><path class="st10" d="M499.7 426.76c-24.19-23.68-35.28-48.63-35.17-78.03.02-5.01.24-9.8.67-14.38 8.54 54.78 57.46 97.55 127.23 100.65 90 4 157.33-30 174-76l13.99 5.76c-5.62 25.48-22.7 50.4-53.94 69.98-67.48 42.28-188.56 29.42-226.78-7.98z"></path><path class="st4" d="M464.54 348.73c-.12 29.4 10.98 54.36 35.17 78.03 38.21 37.4 159.29 50.26 226.78 7.98s68.92-109.49 31.42-153.45c-40.3-47.23-156.04-62.93-215.39-34.47-55.3 21.14-77.78 49.03-77.98 101.91z"></path><path d="M595.1 200c1.26-1.86 3-14.67 3.33-18.33s-.67-11.33 0-15 5.33-19 7.33-23.67c2-4.67 6.92-9.99 11.96-14.66 5.04-4.67 6.04-6.01 7.37-6.67 1.33-.67 22.67-3 25.33-4.67 2.67-1.67 18.33-12.67 18.33-12.67l7.33 4s4.33 5 8.67 8.33c4.33 3.33 7.33 5 7.33 5s-11.56 13-14.67 19S669.1 154 666.77 159s-9.67 15.67-11 17-6.33 4.67-7.33 6.33c-1 1.67-3.33 6.33-3.33 7.67 0 1.33.56 3.84.33 7-.23 3.16 1.33 6.33 1.67 9 .33 2.67-44.33 14.67-44.33 14.67l-9-9" fill="#c5a7d4" stroke="#3e4147" stroke-width=".75" stroke-linecap="round" stroke-linejoin="round" stroke-miterlimit="10"></path><path class="st17" d="M612.27 144.5s8.11 42.65 8.38 44.2l13.29 22.88a777.55 777.55 0 0 1-30.18 8.82c-.01-5.9-.02-19.55.01-34.9.04-20.52 8.5-41 8.5-41zM637.27 206.5l-3.05-20.62s-2.52-14.42-1.76-21.35c.73-6.63.79-24.39-15.41-35.55l.68-.64c5.04-4.67 6.04-6.01 7.37-6.67 1.33-.67 22.67-3 25.33-4.67 2.67-1.67 18.33-12.67 18.33-12.67l7.33 4s4.33 5 8.67 8.33c4.33 3.33 7.33 5 7.33 5s-11.56 13-14.67 19c-3.1 6-8.33 13.33-10.67 18.33s-9.67 15.67-11 17-6.33 4.67-7.33 6.33-3.33 6.33-3.33 7.67c0 1.33.56 3.84.33 7-.23 3.16 1.33 6.33 1.67 9 .06.46-1.21 1.19-3.34 2.08-3.12-1.48-6.39-2.89-6.48-1.57z"></path><path class="st4" d="M595.1 200c1.26-1.86 3-14.67 3.33-18.33s-.67-11.33 0-15 5.33-19 7.33-23.67c2-4.67 6.92-9.99 11.96-14.66 5.04-4.67 6.04-6.01 7.37-6.67 1.33-.67 22.67-3 25.33-4.67 2.67-1.67 18.33-12.67 18.33-12.67l7.33 4s4.33 5 8.67 8.33c4.33 3.33 7.33 5 7.33 5s-11.56 13-14.67 19S669.1 154 666.77 159s-9.67 15.67-11 17-6.33 4.67-7.33 6.33c-1 1.67-3.33 6.33-3.33 7.67 0 1.33.56 3.84.33 7-.23 3.16 1.33 6.33 1.67 9 .33 2.67-44.33 14.67-44.33 14.67l-9-9"></path><path class="st5" d="M582.1 327.34c-4 10.33-4.67 12.67-4.33 17 .33 4.33 1 4 .33 6.33-.67 2.33-2 3.67-2.67 4.67S574.1 361 574.1 362s.33 5 .33 7.67-3.33 6.67-5.67 8.33c-2.33 1.67-9.33 2.33-10.67 1-1.33-1.33-4-3.33-4.33-5.33-.33-2-1.67-5.33-1-7.67.67-2.33 4.33-8.67 5-11.67.67-3 1.67-3.67 1.67-6.33 0-2.67-.33-3.33.67-4.67 1-1.33 2.33-.67 3.67-3 1.33-2.33 1.55-2.56 3-6.67s2-7.33 2.67-10.67"></path><path class="st6" d="M569.44 323l12.67 4.33c-3.24 8.37-4.29 11.49-4.4 14.68-3.4-2.91-7.15-6.01-10.79-8.76 1.33-3.9 1.87-7.03 2.52-10.25z"></path><path class="st4" d="M582.1 327.34c-4 10.33-4.67 12.67-4.33 17 .33 4.33 1 4 .33 6.33-.67 2.33-2 3.67-2.67 4.67S574.1 361 574.1 362s.33 5 .33 7.67-3.33 6.67-5.67 8.33c-2.33 1.67-9.33 2.33-10.67 1-1.33-1.33-4-3.33-4.33-5.33-.33-2-1.67-5.33-1-7.67.67-2.33 4.33-8.67 5-11.67.67-3 1.67-3.67 1.67-6.33 0-2.67-.33-3.33.67-4.67 1-1.33 2.33-.67 3.67-3 1.33-2.33 1.55-2.56 3-6.67s2-7.33 2.67-10.67"></path><path d="M553.77 373.67c-.33-2-1.67-5.33-1-7.67.67-2.33 4.33-8.67 5-11.67s1.67-3.67 1.67-6.33c0-2.67-.33-3.33.67-4.67.51-.69 1.12-.84 1.76-1.15-.57 2.52.57 5.48 1.57 5.48s3-2.33 5-4.33 3-1.67 4.33-.33c1.33 1.33.67 3.33.67 6.67 0 3.33-.33 5 2 5.67-.67 1-1.33 5.67-1.33 6.67s.33 5 .33 7.67-3.33 6.67-5.67 8.33c-2.33 1.67-9.33 2.33-10.67 1-1.33-1.34-4-3.34-4.33-5.34z" fill="#caa575" stroke="#3e4147" stroke-width=".75" stroke-linecap="round" stroke-linejoin="round" stroke-miterlimit="10"></path><path class="st9" d="M564.87 359.8c-.42-.58-.67-1.3-.94-2l-.77-2.04c-.51-1.3-.92-2.5-1-3.62a3.39 3.39 0 0 1 .82-2.64c.58-.64 1.27-1.1 1.79-1.57.53-.46.92-.93 1.09-1.36.18-.42.15-.75.13-.9-.1.29-.36 1.12-1.49 1.89-.53.41-1.25.82-1.94 1.52a3.97 3.97 0 0 0-1.07 3.08c.06 1.26.51 2.54 1 3.85l.76 2.04c.26.69.52 1.46 1.03 2.17a2.63 2.63 0 0 0 2.05 1.15c.78.02 1.44-.2 2.05-.37.85-.24 1.67-.52 2.41-.94a4.1 4.1 0 0 0 1.73-1.72c.37-.72.42-1.45.47-2.08l.11-1.74c.12-2.13.14-3.5.04-3.88-.16.38-.35 1.72-.59 3.83l-.18 1.73a5.02 5.02 0 0 1-.45 1.82c-.59 1.17-2.09 1.82-3.74 2.26-.6.16-1.23.35-1.82.33-.6.02-1.11-.29-1.49-.81z"></path><path d="M564.27 324.5c3-3.5 5.5-14.5 9-26.5s5-9.5 6-11 3-6.5 4-10.5.5-13 1.5-24.5 3-19.5 3-21v-13.5c0-5 5-16.5 9-25.5-2.5 9 3 13.5 12 15.5s21 6 35-8c0 0 26.75 12.19 35 19.5 6.57 5.82 19.81 10.63 27.96 19.42a51.72 51.72 0 0 0-8.69 6.38c-30.17-11.37-69.04-12.83-78.26-12.17-1.5 2.63-8.5 31.87-9.5 36.37s-.5 10.5-3.5 16.5-6.5 6-8 7.5-4.5 9-8.5 20.5-4 19.5-4 19.5c-5.01 4-25.01-5-22.01-8.5z" fill="#a57f53" stroke="#3e4147" stroke-width=".75" stroke-linecap="round" stroke-linejoin="round" stroke-miterlimit="10"></path><path d="M572.73 299.87l.54-1.86c3.5-12 5-9.5 6-11s3-6.5 4-10.5c.48-1.92.61-5.02.74-8.98 0 0 .27 13.48.27 14.98s6.99 6.5 8.99 7 7.5-1.5 9.5-4.5 6.5-25.5 8-30 5.5-23.5 4.5-28-7.25-11.4-7.25-11.4l10.44 7.85 3-2.74-8.51-12.25c8.41 1.84 18.89 2.98 30.82-8.95 0 0 26.75 12.19 35 19.5 6.57 5.82 19.81 10.63 27.96 19.42a51.72 51.72 0 0 0-8.69 6.38c-30.17-11.37-69.04-12.83-78.26-12.17-1.5 2.63-8.5 31.87-9.5 36.37s-.5 10.5-3.5 16.5-6.5 6-8 7.5-4.5 9-8.5 20.5-4 19.5-4 19.5c-1.44 1.15-4.14 1.22-7.17.66.08-5.71-1.98-15.6-2.83-21.16-.57-3.63-2.2-8.79-3.55-12.65z" fill="#83603c"></path><path class="st4" d="M564.27 324.5c3-3.5 5.5-14.5 9-26.5s5-9.5 6-11 3-6.5 4-10.5.5-13 1.5-24.5 3-19.5 3-21v-13.5c0-5 5-16.5 9-25.5-2.5 9 3 13.5 12 15.5s21 6 35-8c0 0 26.75 12.19 35 19.5 6.57 5.82 19.81 10.63 27.96 19.42a51.72 51.72 0 0 0-8.69 6.38c-30.17-11.37-69.04-12.83-78.26-12.17-1.5 2.63-8.5 31.87-9.5 36.37s-.5 10.5-3.5 16.5-6.5 6-8 7.5-4.5 9-8.5 20.5-4 19.5-4 19.5c-5.01 4-25.01-5-22.01-8.5z"></path><path class="st9" d="M636.32 229.34l9-1.84c4.47-.92 7.31-1.52 7.88-1.82-.6-.1-3.53.31-8.01 1.15a568.12 568.12 0 0 0-13.4 2.7c-6.81 1.46-11.39 2.56-12.01 3.1.79-.05 5.31-.95 12.17-2.38l4.37-.91z"></path><path class="st5" d="M631.77 175.67c1 5.33 4 16.33 5 18s7.67 7 13.67 14 17.67 17.67 20.33 20.33c2.67 2.67 10.33 8 13.33 9s5.64.38 6.67 3c1.03 2.62 3 4 4.33 5s3 .67 3.67 1.67c.33 1-1 2-1 2s3 2.67 3.67 3.67-4 .33-4 .33.33 2-4.67-.33-19.33-10.67-19.33-10.67-9.26-3.83-11-5-5.43-5.01-7.33-8c-1.91-2.99-24.67-14.33-29-18-4.33-3.67-8-5.67-9-8.67s-3.33-21-4-25.33c10.99-9 18.21-3.19 18.66-1z"></path><path class="st6" d="M613.1 176.67a25.1 25.1 0 0 1 5.09-3.31c1.25 8.45 3.05 19.45 3.82 22.14 1 3.5 23.25 19.25 26 21.75s11.25 7.5 13 9.5 9 9.25 11.25 11.25 6.59 3.42 14.05 10.96c-5.91-3.24-12.88-7.29-12.88-7.29s-9.26-3.83-11-5c-1.74-1.17-5.43-5.01-7.33-8-1.91-2.99-24.67-14.33-29-18-4.33-3.67-8-5.67-9-8.67s-3.33-21-4-25.33z"></path><path class="st4" d="M631.77 175.67c1 5.33 4 16.33 5 18s7.67 7 13.67 14 17.67 17.67 20.33 20.33c2.67 2.67 10.33 8 13.33 9s5.64.38 6.67 3c1.03 2.62 3 4 4.33 5s3 .67 3.67 1.67c.33 1-1 2-1 2s3 2.67 3.67 3.67-4 .33-4 .33.33 2-4.67-.33-19.33-10.67-19.33-10.67-9.26-3.83-11-5-5.43-5.01-7.33-8c-1.91-2.99-24.67-14.33-29-18-4.33-3.67-8-5.67-9-8.67s-3.33-21-4-25.33c10.99-9 18.21-3.19 18.66-1z"></path><path class="st21" d="M676.77 275c2.5-15 11.65-22.58 28.15-18.58s23.21 17.72 23.21 17.72c4.63 1.87 7.13-2.13 7.13-2.13-1.29-10.5 4-19.5 16.5-17.5s26.29 18.18 30 36c3.33 16-6.28 29.13-23.5 22-12.23-5.69-12.87-14.22-18.87-12.72-8-1.5-5.63 9.22-11.13 16.22-4.85 10.38-24 11.87-35.87-.3-5.05-5.17-10.89-9.46-11.83-18.2"></path><path class="st22" d="M678.32 268.86c3.82-10.84 12.54-15.85 26.6-12.44l.57.15c-4.85-.1-9.87 2.24-14.39 8.43-5.7 7.81-9.99 7.15-12.78 3.86zM735.24 266.38c.96-7.83 6.35-13.5 16.53-11.87 1.14.18 2.29.49 3.44.89-5.1 1.06-8.83 5.19-11.44 8.94-1.92 2.75-5.44 3.46-8.53 2.04z"></path><path class="st4" d="M676.77 275c2.5-15 11.65-22.58 28.15-18.58s23.21 17.72 23.21 17.72c4.63 1.87 7.13-2.13 7.13-2.13-1.29-10.5 4-19.5 16.5-17.5s26.29 18.18 30 36c3.33 16-6.28 29.13-23.5 22-12.23-5.69-12.87-14.22-18.87-12.72-8-1.5-5.63 9.22-11.13 16.22-4.85 10.38-24 11.87-35.87-.3-5.05-5.17-10.89-9.46-11.83-18.2"></path><path class="st8" d="M746.07 355.21c17.7 20.13 55.21 10.58 48.58-19.3-3.96-17.84-15.27-28.37-28.39-33.85-8.49-3.55-26.49-2.05-32.13 12.41-1.27 3.25-1.35 6.9-1.12 10.14a32.75 32.75 0 0 0 4.12 13.53"></path><path class="st9" d="M768.26 303.36c9.24 4.29 16.88 11.33 21.34 19.85a49.09 49.09 0 0 1 4.78 13.28c.2 1.14.45 2.27.51 3.41.04.57.14 1.14.13 1.71l.01 1.7c-.1 2.25-.36 4.51-1.09 6.61-.7 2.1-1.68 4.09-2.97 5.85a22.91 22.91 0 0 1-4.56 4.56 26.84 26.84 0 0 1-11.53 4.75c-2.03.35-4.07.43-6.09.4-2.01-.12-4-.3-5.92-.77a30.97 30.97 0 0 1-10.55-4.49c-3.82-2.44-5.66-4.75-6.27-5.01.28.49 2.03 3.01 5.89 5.58a31.74 31.74 0 0 0 10.83 4.61c1.97.48 4.01.67 6.07.78a33.8 33.8 0 0 0 6.25-.42 27.16 27.16 0 0 0 11.86-4.94 23.74 23.74 0 0 0 4.68-4.76 21.66 21.66 0 0 0 3.04-6.08c1.42-4.39 1.34-9.2.39-13.81a49.7 49.7 0 0 0-4.88-13.44c-4.53-8.63-12.31-15.74-21.61-20.06a25.44 25.44 0 0 0-13.51-2.53 27.93 27.93 0 0 0-12.81 3.95 21.4 21.4 0 0 0-8.33 9.92 18.38 18.38 0 0 0-1.34 6.24 31.18 31.18 0 0 0 2.59 14.5c.87 1.97 1.65 3.12 1.95 3.37-.09-.4-.69-1.6-1.45-3.58a36.1 36.1 0 0 1-2.11-8.16 33.13 33.13 0 0 1-.25-6.07c.13-2.04.46-4.1 1.28-6a20.73 20.73 0 0 1 8.02-9.58 27.16 27.16 0 0 1 12.47-3.86 25 25 0 0 1 13.18 2.49z"></path><path class="st10" d="M756.21 300.44c-7.93 1.55-13.87 6.73-14.84 17.25-2.27 24.64 23.69 43.05 35.71 40.84 7.05-1.29 13.86-3.9 18.02-11.88-3.4 21.13-33.67 26.01-49.04 8.55l-8.94-17.07s-3.57-5.78-4.12-13.53c-.23-3.24-.14-6.9 1.12-10.14 3.89-9.95 13.63-13.76 22.09-14.02z"></path><path class="st9" d="M768.26 303.36c9.24 4.29 16.88 11.33 21.34 19.85a49.09 49.09 0 0 1 4.78 13.28c.2 1.14.45 2.27.51 3.41.04.57.14 1.14.13 1.71l.01 1.7c-.1 2.25-.36 4.51-1.09 6.61-.7 2.1-1.68 4.09-2.97 5.85a22.91 22.91 0 0 1-4.56 4.56 26.84 26.84 0 0 1-11.53 4.75c-2.03.35-4.07.43-6.09.4-2.01-.12-4-.3-5.92-.77a30.97 30.97 0 0 1-10.55-4.49c-3.82-2.44-5.66-4.75-6.27-5.01.28.49 2.03 3.01 5.89 5.58a31.74 31.74 0 0 0 10.83 4.61c1.97.48 4.01.67 6.07.78a33.8 33.8 0 0 0 6.25-.42 27.16 27.16 0 0 0 11.86-4.94 23.74 23.74 0 0 0 4.68-4.76 21.66 21.66 0 0 0 3.04-6.08c1.42-4.39 1.34-9.2.39-13.81a49.7 49.7 0 0 0-4.88-13.44c-4.53-8.63-12.31-15.74-21.61-20.06a25.44 25.44 0 0 0-13.51-2.53 27.93 27.93 0 0 0-12.81 3.95 21.4 21.4 0 0 0-8.33 9.92 18.38 18.38 0 0 0-1.34 6.24 31.18 31.18 0 0 0 2.59 14.5c.87 1.97 1.65 3.12 1.95 3.37-.09-.4-.69-1.6-1.45-3.58a36.1 36.1 0 0 1-2.11-8.16 33.13 33.13 0 0 1-.25-6.07c.13-2.04.46-4.1 1.28-6a20.73 20.73 0 0 1 8.02-9.58 27.16 27.16 0 0 1 12.47-3.86 25 25 0 0 1 13.18 2.49z"></path><path class="st8" d="M707.27 407.5c6.5 45.5-6.5 78.5-22.5 72-5 5.5-36 1.5-52.5-43.5"></path><path class="st9" d="M668.3 479.71c2.11.8 4.27 1.42 6.48 1.78 2.2.35 4.46.46 6.66.02a7.4 7.4 0 0 0 3.12-1.31l.31-.28h-.02l.78.26c.52.21 1.07.27 1.62.38 2.19.35 4.48-.07 6.38-1.12a16.15 16.15 0 0 0 4.85-4.13 31.99 31.99 0 0 0 3.4-5.22 55.84 55.84 0 0 0 4.22-11.3c2-7.64 2.84-15.23 3.13-22.49.28-7.27-.03-14.23-.65-20.81-.49-4.55-1.04-7.42-1.3-7.99-.14.6.21 3.53.61 8.06.62 6.59.91 13.56.62 20.81a104.2 104.2 0 0 1-3.16 22.37 54.6 54.6 0 0 1-4.19 11.13 29.09 29.09 0 0 1-3.33 5.06 15.15 15.15 0 0 1-4.64 3.9 9.4 9.4 0 0 1-5.92.96c-.51-.09-1.01-.17-1.5-.36l-.84-.28c-.13-.05-.26-.12-.35.02l-.26.23-.27.24c-.79.6-1.8.92-2.82 1.12-2.06.41-4.23.29-6.36-.05a32.63 32.63 0 0 1-6.29-1.73 44.32 44.32 0 0 1-10.32-5.77 58.57 58.57 0 0 1-8.53-7.77 75.73 75.73 0 0 1-6.84-8.86 94.35 94.35 0 0 1-5.38-9.37c-3.09-6.22-4.67-10.64-5.22-11.23.08.8 1.47 5.23 4.56 11.56a82.08 82.08 0 0 0 12.31 18.38 58.6 58.6 0 0 0 8.64 7.88 44.07 44.07 0 0 0 10.5 5.91z"></path><path class="st10" d="M632.27 436c11.18 30.48 29 42.15 40.9 44.8-8.54-14.03-37.04-56.53-44.73-75.13-4.67 12 4.82 32.92 4.82 32.92"></path><path class="st9" d="M668.3 479.71c2.11.8 4.27 1.42 6.48 1.78 2.2.35 4.46.46 6.66.02a7.4 7.4 0 0 0 3.12-1.31l.31-.28h-.02l.78.26c.52.21 1.07.27 1.62.38 2.19.35 4.48-.07 6.38-1.12a16.15 16.15 0 0 0 4.85-4.13 31.99 31.99 0 0 0 3.4-5.22 55.84 55.84 0 0 0 4.22-11.3c2-7.64 2.84-15.23 3.13-22.49.28-7.27-.03-14.23-.65-20.81-.49-4.55-1.04-7.42-1.3-7.99-.14.6.21 3.53.61 8.06.62 6.59.91 13.56.62 20.81a104.2 104.2 0 0 1-3.16 22.37 54.6 54.6 0 0 1-4.19 11.13 29.09 29.09 0 0 1-3.33 5.06 15.15 15.15 0 0 1-4.64 3.9 9.4 9.4 0 0 1-5.92.96c-.51-.09-1.01-.17-1.5-.36l-.84-.28c-.13-.05-.26-.12-.35.02l-.26.23-.27.24c-.79.6-1.8.92-2.82 1.12-2.06.41-4.23.29-6.36-.05a32.63 32.63 0 0 1-6.29-1.73 44.32 44.32 0 0 1-10.32-5.77 58.57 58.57 0 0 1-8.53-7.77 75.73 75.73 0 0 1-6.84-8.86 94.35 94.35 0 0 1-5.38-9.37c-3.09-6.22-4.67-10.64-5.22-11.23.08.8 1.47 5.23 4.56 11.56a82.08 82.08 0 0 0 12.31 18.38 58.6 58.6 0 0 0 8.64 7.88 44.07 44.07 0 0 0 10.5 5.91z"></path><path class="st8" d="M571.77 436.5c-20.5 35.5-58.5 45.5-74.5 29-10 5.5-13.5 2.5-13.5 0-5.5 3.5-5-.5-6.5-1.5-10-19-3.78-47.41 5.36-57.21"></path><path class="st9" d="M478.51 466.44c.43.57 1.24.91 1.93.83.7-.04 1.32-.28 1.89-.55.51-.22 1.37-.75 1.13-.6l.12.42c.13.32.29.63.51.9.88 1.09 2.28 1.47 3.52 1.53 1.27.05 2.5-.2 3.68-.51 1.18-.34 2.32-.76 3.41-1.26.55-.24 1.1-.49 1.62-.78l.8-.41.09-.05.01.01.16.15a23.3 23.3 0 0 0 5.76 4.18 26.73 26.73 0 0 0 6.56 2.42c2.26.52 4.54.83 6.82.86 4.55.16 9-.59 13.21-1.73 8.44-2.36 15.88-6.63 22.2-11.59a80.74 80.74 0 0 0 15.76-16.75c2.59-3.78 3.92-6.4 4.08-7-.5.38-2.01 2.91-4.64 6.6a79.87 79.87 0 0 1-15.72 16.65c-6.29 4.91-13.68 9.13-22.02 11.42a43.37 43.37 0 0 1-13 1.65 31.25 31.25 0 0 1-6.65-.87c-2.2-.5-4.35-1.3-6.36-2.38a22.46 22.46 0 0 1-5.54-4.06l-.22-.21-.16-.15c-.06-.03-.1-.15-.17-.08l-.6.31-.78.4c-.51.28-1.05.51-1.58.76-1.06.49-2.17.89-3.29 1.21-1.13.29-2.29.51-3.43.45-1.12-.06-2.28-.42-2.93-1.27-.17-.2-.28-.44-.38-.68l-.05-.19-.03-.09-.01-.02a.45.45 0 0 1-.02-.08l-.01-.11c-.04-.28-.04-.64-.12-.86l-1.26.75c-.25.16-.52.27-.79.4-1.04.51-2.27.77-2.92-.09-.31-.37-.53-.87-.83-1.38-.16-.25-.33-.52-.59-.74-.11-.02-.19-.36-.32-.59l-1.37-2.98c-.72-2.06-1.48-4.1-1.93-6.21-.99-4.2-1.5-8.46-1.48-12.66a66.53 66.53 0 0 1 4.22-23.8c.31-.81.66-1.56.96-2.29l.45-1.06.5-.97.91-1.78.91-1.47c.29-.44.51-.88.77-1.22l.67-.91c.38-.53.61-.9.68-1.09-.17.11-.49.41-.94.89l-.77.85c-.29.33-.54.74-.86 1.18l-.99 1.45-.98 1.78-.53.98-.48 1.07c-.32.74-.68 1.5-1 2.32a67.27 67.27 0 0 0-4.28 24.04c-.03 4.25.49 8.57 1.49 12.84 1.06 4.22 2.41 8.56 5.21 12.22z"></path><path class="st10" d="M571.77 436.5c-20.5 35.5-58.5 45.5-74.5 29-10 5.5-13.5 2.5-13.5 0-5.5 3.5-5-.5-6.5-1.5-6.39-12.15-6.15-28.14-2.76-40.65 21.18 48.4 25.19 3.41 25.19 3.41s-7.67-8.52-15.52-19.44l87.59 29.18z"></path><path class="st9" d="M478.51 466.44c.43.57 1.24.91 1.93.83.7-.04 1.32-.28 1.89-.55.51-.22 1.37-.75 1.13-.6l.12.42c.13.32.29.63.51.9.88 1.09 2.28 1.47 3.52 1.53 1.27.05 2.5-.2 3.68-.51 1.18-.34 2.32-.76 3.41-1.26.55-.24 1.1-.49 1.62-.78l.8-.41.09-.05.01.01.16.15a23.3 23.3 0 0 0 5.76 4.18 26.73 26.73 0 0 0 6.56 2.42c2.26.52 4.54.83 6.82.86 4.55.16 9-.59 13.21-1.73 8.44-2.36 15.88-6.63 22.2-11.59a80.74 80.74 0 0 0 15.76-16.75c2.59-3.78 3.92-6.4 4.08-7-.5.38-2.01 2.91-4.64 6.6a79.87 79.87 0 0 1-15.72 16.65c-6.29 4.91-13.68 9.13-22.02 11.42a43.37 43.37 0 0 1-13 1.65 31.25 31.25 0 0 1-6.65-.87c-2.2-.5-4.35-1.3-6.36-2.38a22.46 22.46 0 0 1-5.54-4.06l-.22-.21-.16-.15c-.06-.03-.1-.15-.17-.08l-.6.31-.78.4c-.51.28-1.05.51-1.58.76-1.06.49-2.17.89-3.29 1.21-1.13.29-2.29.51-3.43.45-1.12-.06-2.28-.42-2.93-1.27-.17-.2-.28-.44-.38-.68l-.05-.19-.03-.09-.01-.02a.45.45 0 0 1-.02-.08l-.01-.11c-.04-.28-.04-.64-.12-.86l-1.26.75c-.25.16-.52.27-.79.4-1.04.51-2.27.77-2.92-.09-.31-.37-.53-.87-.83-1.38-.16-.25-.33-.52-.59-.74-.11-.02-.19-.36-.32-.59l-1.37-2.98c-.72-2.06-1.48-4.1-1.93-6.21-.99-4.2-1.5-8.46-1.48-12.66a66.53 66.53 0 0 1 4.22-23.8c.31-.81.66-1.56.96-2.29l.45-1.06.5-.97.91-1.78.91-1.47c.29-.44.51-.88.77-1.22l.67-.91c.38-.53.61-.9.68-1.09-.17.11-.49.41-.94.89l-.77.85c-.29.33-.54.74-.86 1.18l-.99 1.45-.98 1.78-.53.98-.48 1.07c-.32.74-.68 1.5-1 2.32a67.27 67.27 0 0 0-4.28 24.04c-.03 4.25.49 8.57 1.49 12.84 1.06 4.22 2.41 8.56 5.21 12.22z"></path><path class="st9" d="M483.13 406.35c-1.26-1.77-2.32-3.38-3.21-4.72-2.48-3.82-4.02-6.29-4.5-6.71.13.59 1.51 3.2 3.93 7.08a99.69 99.69 0 0 0 3.17 4.78c.58.8 1.13 1.56 1.66 2.25 4.27 5.55 7.83 8.69 8.51 9.05-.34-.76-3.7-3.95-7.92-9.5-.52-.68-1.07-1.44-1.64-2.23zM494.69 462.58a33.5 33.5 0 0 0 2.34 2.9c1.54 1.7 2.89 3.06 4.19 3.7 1.29.67 2.3.5 2.56.37-.29-.07-1.19-.06-2.33-.77-1.14-.68-2.42-2.05-3.9-3.76a56.9 56.9 0 0 1-2.25-2.89c-.35-.52-.71-1-1-1.47-3.78-5.81-4.85-10.47-5.34-11.08-.01.41.23 1.75.93 3.78a36.45 36.45 0 0 0 3.79 7.7c.29.49.65.99 1.01 1.52zM562.5 462.95c-3.06-2.02-4.7-3.93-5.19-3.99.01.44 1.65 2.56 4.78 4.62 3.13 2.04 5.74 2.7 6.14 2.53-.25-.42-2.66-1.16-5.73-3.16zM762.93 355.05a42.4 42.4 0 0 1-11.92-10.32 43.96 43.96 0 0 1-4.26-6.25 42.5 42.5 0 0 1-3.08-6.62 36.84 36.84 0 0 1-1.82-6.78 28.12 28.12 0 0 1-.19-6.72c.41-4.34 1.84-8.56 4.68-11.34.36-.43.79-.74 1.19-1.05l.58-.46c.2-.13.41-.24.6-.35.4-.21.75-.46 1.11-.61l1.02-.41c.61-.3 1.18-.35 1.58-.5.41-.12.69-.22.84-.3a4.18 4.18 0 0 0-.87.04c-.43.07-1.02.06-1.68.32l-1.09.35c-.39.14-.77.38-1.2.59-.21.11-.43.22-.65.35l-.62.46c-.43.31-.89.64-1.28 1.08a15.31 15.31 0 0 0-3.45 5.35 24 24 0 0 0-1.47 6.47c-.21 2.25-.15 4.58.2 6.91a42.64 42.64 0 0 0 5 13.66 44.65 44.65 0 0 0 4.32 6.34 43.53 43.53 0 0 0 12.08 10.45 21.83 21.83 0 0 0 6.93 2.68c2.4.5 4.83.67 7.2.55 4.71-.24 9.4-1.55 12.85-4.46a12.12 12.12 0 0 0 3.05-3.81c.67-1.32.98-2.59 1.15-3.67a9.32 9.32 0 0 0-.14-3.9c-.13.4-.01 1.76-.4 3.81a11.95 11.95 0 0 1-4.14 7.01c-3.26 2.75-7.79 4.04-12.38 4.27-4.6.2-9.52-.58-13.74-3.14z"></path><path class="st13" d="M760.34 336.81c-2.44-8.61-7.24-15.66-10.79-16.09.03-1.77.54-3.14 1.72-3.79 4.12-1.95 10.87 7.05 14.08 18.37 2.52 8.89-1.11 10.68-4.78 8.31.65-1.22.73-3.42-.23-6.8z"></path><path class="st7" d="M757.69 340.79c-3.36-4.34-8.24-14.35-8.14-20.07 3.55.43 8.35 7.48 10.79 16.09.96 3.39.89 5.58.23 6.8-1-.65-2-1.61-2.88-2.82z"></path><path class="st13" d="M779.54 335.47c-2.44-8.61-7.24-15.66-10.79-16.09.03-1.77.54-3.14 1.72-3.79 4.12-1.95 10.87 7.05 14.08 18.37 2.52 8.89-1.11 10.68-4.78 8.31.66-1.22.73-3.42-.23-6.8z"></path><path class="st7" d="M776.89 339.45c-3.36-4.34-8.24-14.35-8.14-20.07 3.55.43 8.35 7.48 10.79 16.09.96 3.39.89 5.58.23 6.8-.99-.65-2-1.61-2.88-2.82zM706.61 334.71a29.48 29.48 0 0 1 2.66-6.71s6 12 23 29.5c-6.36 1.27-12.52.29-17.28-2.4 2.78-3.55-2.38-17.38-8.38-20.39z"></path><path d="M706.61 334.71c6 3.01 11.17 16.83 8.38 20.39-6.78-3.83-10.72-11.13-8.38-20.39z" fill="#d85927" stroke="#3e4147" stroke-width=".75" stroke-linecap="round" stroke-linejoin="round" stroke-miterlimit="10"></path><path class="st13" d="M531.77 285c5-14 22-10.5 20 2-.1.81-.24 1.8-.4 2.94-4.1-2.52-9.81-1.66-12.1 4.56-3.5 9.5-4.5 32.5-5.5 48-.56 8.7 4.23 11.57 9.08 10.38-5.28 7.77-17.39 6.64-18.58-2.88-1-18 2.5-51 7.5-65z"></path><path class="st7" d="M533.77 342.5c1-15.5 2-38.5 5.5-48 2.29-6.21 8-7.08 12.1-4.56-1.47 10.2-5.2 33.03-6.1 55.06a14.89 14.89 0 0 1-2.42 7.88c-4.85 1.19-9.64-1.68-9.08-10.38z"></path><path class="st14" d="M472.93 430.9c4.75 23.82 9.33 31.45 19.98 28.22.64 1.21 2.66 3.99 4.71 6.71-.11-.11-.24-.21-.35-.33-10 5.5-13.5 2.5-13.5 0-5.5 3.5-5-.5-6.5-1.5-5.17-9.81-6-22.13-4.34-33.1zM706.85 453.93c-3.83 18.99-12.41 29.51-22.08 25.58-3.86 4.25-23.23 2.82-39.46-18.78 29.18 17.67 49.33 14.15 61.54-6.8z"></path><path class="st9" d="M685.6 475.5c.27-1.39.35-2.66.46-3.78l.23-2.98c.11-1.69.12-2.77 0-3.06-.18.25-.38 1.32-.6 3.01l-.35 2.97c-.13 1.13-.22 2.38-.48 3.69a8.8 8.8 0 0 1-1.3 3.33 5.5 5.5 0 0 1-2.14 1.77c-1.49.68-2.57.28-2.86.34.1.11.4.33.93.44.53.12 1.3.11 2.15-.21a5.66 5.66 0 0 0 2.49-1.89 9.17 9.17 0 0 0 1.47-3.63zM757.04 450.16c2.18-4.68 2.43-8.28 2.24-8.79-.41.42-.81 3.96-2.92 8.47-1.06 2.25-2.18 4.05-3.3 5.06-1.11 1.04-2.08 1.29-2.28 1.49.25.09 1.38.01 2.67-1.03 1.3-1.01 2.5-2.9 3.59-5.2zM484.61 464.48a11.54 11.54 0 0 0 2.95-4.92c.4-1.4.36-2.33.25-2.57-.19.2-.34 1.09-.82 2.39a12.76 12.76 0 0 1-2.91 4.57c-1.55 1.52-3.32 2.59-4.54 2.27a1.96 1.96 0 0 1-1.2-.85c-.21-.33-.23-.6-.3-.72-.08.09-.2.42-.04.88.15.45.59 1 1.36 1.27.78.26 1.76.08 2.64-.37.89-.47 1.77-1.12 2.61-1.95z"></path><path class="st1" d="M567.1 267.34c-2.67-11 3.01-17.92 7.51-30.79 4.49-12.87-4.51-43.21-30.17-60.87s-67-34.33-76-42.67c-9-8.33-12.67-5.67-12.67-5.67s-28.33-20.67-39-36.33c-3.67-4-7 5 3.67 26s48.67 47.33 48.67 47.33-41.33-23-52.33-31.67c-8-3.67-8.67 6.67 3.33 21.33 12 14.67 57 39.33 57 39.33s-40.67-20-46.33-23.33c-5.67-3.33 0 9.67 11 18 1 10.67 28.33 26.67 40 34.67 11.67 8 20.67 11 20.67 11s12.75 16.77 23.04 20.39c1.85 6.69 11.6 14.53 14.79 16.19"></path><path class="st9" d="M446.84 174.7l-2.82-1.86-5.55-3.81c-1.81-1.33-3.66-2.58-5.42-3.96l-2.66-2.04c-.88-.69-1.72-1.42-2.58-2.12-1.74-1.38-3.32-2.94-4.94-4.45l-2.23-2.44a56.88 56.88 0 0 1-5.73-8.07 33.94 33.94 0 0 1-2.78-5.92 16.45 16.45 0 0 1-.77-3.13 6.3 6.3 0 0 1 .22-3.07c.18-.46.45-.87.84-1.13.38-.26.86-.38 1.35-.4.49-.03 1.01.08 1.51.2.25.09.5.15.74.25l.37.15.18.07.02.01.08.06c.89.65 1.76 1.33 2.66 1.96l2.71 1.86c3.65 2.42 7.35 4.73 11.05 6.99 7.42 4.52 14.88 8.87 22.31 13.14l11.15 6.33 1.39.78.7.39.17.1.09.05c.79-1.27.2-.37.36-.66l-.04-.03-.32-.23-2.58-1.86a274.1 274.1 0 0 1-24.42-19.92c-6.1-5.65-11.97-11.55-16.77-18.19l-1.76-2.51c-.6-.83-1.04-1.75-1.57-2.62a54.41 54.41 0 0 1-2.8-5.42 73.8 73.8 0 0 1-4.26-11.36c-.76-2.9-1.37-5.93-1.08-8.85.09-.72.25-1.44.6-1.99.17-.27.4-.48.64-.55.25-.07.53 0 .81.16.27.13.57.43.74.6l.67.92 1.35 1.83c3.73 4.78 7.98 9.04 12.31 13.14 4.35 4.08 8.85 7.95 13.42 11.68 2.28 1.87 4.59 3.69 6.91 5.49l3.5 2.66 1.04.77c.07.1.15 0 .23-.04l.21-.12c.08-.03.15-.07.23-.09.15-.05.31-.09.47-.11a5.8 5.8 0 0 1 2.03.09c2.74.64 5.17 2.34 7.38 4.12.56.44 1.08.94 1.63 1.41.53.48 1.13.93 1.69 1.39.56.48 1.16.89 1.77 1.28l1.81 1.21a219.75 219.75 0 0 0 15.06 8.28c10.12 5.2 20.21 10.15 29.98 15.38 4.89 2.62 9.71 5.27 14.42 8.07 2.37 1.37 4.66 2.84 6.97 4.27 2.25 1.51 4.55 2.95 6.71 4.55a75.6 75.6 0 0 1 20.85 23.76 70.3 70.3 0 0 1 6.09 14.32c1.45 4.94 2.35 10.06 2.11 15.11-.1 2.54-.65 4.97-1.59 7.33a142.7 142.7 0 0 1-2.82 7.02c-1.94 4.62-4.1 9.26-4.67 14.3-.43 4.65.63 7.53.87 8.06.15-.61-.7-3.5-.19-7.98.55-4.9 2.69-9.51 4.65-14.15 1-2.32 1.96-4.68 2.85-7.08a22.63 22.63 0 0 0 1.62-7.56c.23-5.19-.7-10.38-2.18-15.38a70.95 70.95 0 0 0-6.19-14.48 76.2 76.2 0 0 0-21.13-23.97c-2.18-1.63-4.5-3.05-6.76-4.58-2.33-1.42-4.62-2.91-7-4.28a380.6 380.6 0 0 0-14.45-8.08c-19.53-10.56-40.58-19.43-59.49-33.1a6.18 6.18 0 0 0-2.31-.02c-.19.04-.4.1-.58.17l-.13.05-.86-.64-3.48-2.65c-2.3-1.79-4.6-3.6-6.87-5.47a260.53 260.53 0 0 1-13.34-11.63c-4.3-4.07-8.52-8.31-12.19-13.03l-1.32-1.8-.7-.94c-.29-.29-.58-.58-.98-.78-.38-.2-.88-.33-1.37-.18a1.9 1.9 0 0 0-1.04.88c-.45.74-.6 1.53-.7 2.3-.3 3.12.34 6.15 1.1 9.1a74.56 74.56 0 0 0 4.31 11.51 55.93 55.93 0 0 0 2.84 5.49c.54.88.99 1.83 1.6 2.66l1.78 2.55c4.87 6.72 10.78 12.64 16.91 18.32a273.43 273.43 0 0 0 19.41 16.17c1.68 1.29 3.39 2.56 5.1 3.81l2.59 1.86.16.12.08.06.04.03c-.06.16.74-1.2.38-.64l-.35-.19-.7-.39-1.39-.78-11.15-6.33a989.05 989.05 0 0 1-22.29-13.13c-3.7-2.26-7.38-4.57-11.02-6.98l-2.69-1.85c-.89-.63-1.75-1.29-2.63-1.94a.59.59 0 0 0-.16-.1l-.1-.04-.2-.08-.39-.16c-.27-.09-.54-.19-.82-.26a5.64 5.64 0 0 0-1.75-.2c-.6.04-1.22.23-1.73.61a3.1 3.1 0 0 0-1.06 1.5 7.46 7.46 0 0 0-.21 3.44c.16 1.12.46 2.21.82 3.27a34.36 34.36 0 0 0 2.85 6.04 56.92 56.92 0 0 0 8.08 10.63c1.64 1.52 3.23 3.09 4.98 4.48.86.71 1.71 1.44 2.59 2.13l2.66 2.04c1.76 1.38 3.62 2.64 5.43 3.96l5.56 3.81 2.83 1.86a484 484 0 0 0 23.64 14.46l5.99 3.39.75.42.09.05c-.04.16.64-1.27.32-.68l-.05-.02-.19-.09-.38-.19-1.54-.76-3.03-1.47-12.23-6.06c-8.12-4.04-16.2-8.06-24.15-12.17l-2.97-1.56-1.46-.81c-.49-.26-1-.6-1.67-.7-.34-.04-.83.04-1.1.42-.25.37-.23.72-.24 1.03.03.63.2 1.19.39 1.74.39 1.09.9 2.1 1.45 3.08a44.54 44.54 0 0 0 11.01 12.52l.33.26.08.06c0 .01 0-.02 0 0l.14.86c.16.55.3 1.11.55 1.62.88 2.1 2.26 3.9 3.71 5.56a72.24 72.24 0 0 0 9.75 8.86c6.9 5.37 14.19 10.06 21.36 14.77 3.59 2.33 7.07 4.83 10.76 7.01a98.03 98.03 0 0 0 11.35 5.83c.98.42 1.96.82 2.96 1.18l.22.08.21.27.49.62 1 1.23c1.34 1.63 2.72 3.21 4.14 4.76a83.38 83.38 0 0 0 9.1 8.64c.67.52 1.36 1.02 2.04 1.53.7.48 1.42.93 2.12 1.4.74.4 1.47.83 2.23 1.2l1.16.49.48.2.01.04.1.3a16.9 16.9 0 0 0 2.27 4.34 31.8 31.8 0 0 0 2.92 3.6c4.82 5.13 9.01 7.54 9.79 7.64-.56-.56-4.49-3.03-9.24-8.14-1-1.07-1.96-2.25-2.85-3.51a16.19 16.19 0 0 1-2.17-4.14l-.1-.28-.08-.23-.05-.14c-.02-.04-.09-.05-.13-.07l-.67-.28-1.12-.47c-.73-.36-1.44-.77-2.16-1.16l-2.08-1.37c-.67-.5-1.35-.99-2.01-1.51a83.27 83.27 0 0 1-9-8.54 122.85 122.85 0 0 1-4.11-4.72l-.99-1.22-.49-.61-.24-.31-.12-.16c-.05-.04-.12-.05-.18-.07l-.2-.07c-.98-.35-1.95-.74-2.91-1.16a97.68 97.68 0 0 1-11.24-5.77c-3.65-2.15-7.11-4.64-10.71-6.98-7.16-4.7-14.43-9.39-21.29-14.71a72.75 72.75 0 0 1-9.65-8.74 21.06 21.06 0 0 1-3.62-5.34c-.23-.48-.38-.99-.53-1.5-.07-.25-.09-.52-.14-.77l-.04-.26c-.02-.07-.01-.14-.04-.2l-.16-.13-.35-.27a44.34 44.34 0 0 1-10.87-12.26 18.6 18.6 0 0 1-1.42-2.95 6.16 6.16 0 0 1-.38-1.52c-.02-.24-.01-.49.07-.63.06-.14.13-.18.34-.17.4.01.9.28 1.36.54l1.48.82 2.98 1.57c7.97 4.12 16.05 8.14 24.19 12.19l12.25 6.07 3.08 1.52 1.54.76.39.19.19.09.1.05.05.02c.71-1.32.17-.38.32-.68l-.75-.42-5.99-3.39a494.82 494.82 0 0 1-23.72-14.51z"></path><path class="st12" d="M517.58 189.49c4.35.87 8.89 1.61 12.76 2.18 5.79.85 16.5 14.13 16.5 14.13l10.27 20.53c-.01.01-24.65-26.51-39.53-36.84z"></path><path class="st12" d="M441.77 188c-11-8.33-16.67-21.33-11-18 5.67 3.33 46.33 23.33 46.33 23.33s-45-24.67-57-39.33c-12-14.67-11.33-25-3.33-21.33 11 8.67 52.33 31.67 52.33 31.67S431.1 138 420.44 117c-10.67-21-7.33-30-3.67-26 10.67 15.67 39 36.33 39 36.33s.99-.72 3.21-.24c11.77 12.85 41.29 33.91 41.29 33.91 7.5 5.5 18 14 18 14s-28-16.5-36-19.5 19.87 18.23 28.5 26.5c4.4 4.21 8.77 7.73 12.02 10.16-4.33-2.43-8.91-2.94-3.02 11.34 9.5 23 31 42.5 31 42.5l3.5 15.5s-12.39-10.56-18.89-18.06-10.61-7.44-7.61 4.06c1.7 6.52 10.14 15.6 17.14 22.25l-4.64.5c-3.19-1.66-12.94-9.51-14.79-16.19-10.29-3.62-23.04-20.39-23.04-20.39s-9-3-20.67-11-39-24-40-34.67z"></path><path class="st9" d="M446.84 174.7l-2.82-1.86-5.55-3.81c-1.81-1.33-3.66-2.58-5.42-3.96l-2.66-2.04c-.88-.69-1.72-1.42-2.58-2.12-1.74-1.38-3.32-2.94-4.94-4.45l-2.23-2.44a56.88 56.88 0 0 1-5.73-8.07 33.94 33.94 0 0 1-2.78-5.92 16.45 16.45 0 0 1-.77-3.13 6.3 6.3 0 0 1 .22-3.07c.18-.46.45-.87.84-1.13.38-.26.86-.38 1.35-.4.49-.03 1.01.08 1.51.2.25.09.5.15.74.25l.37.15.18.07.02.01.08.06c.89.65 1.76 1.33 2.66 1.96l2.71 1.86c3.65 2.42 7.35 4.73 11.05 6.99 7.42 4.52 14.88 8.87 22.31 13.14l11.15 6.33 1.39.78.7.39.17.1.09.05c.79-1.27.2-.37.36-.66l-.04-.03-.32-.23-2.58-1.86a274.1 274.1 0 0 1-24.42-19.92c-6.1-5.65-11.97-11.55-16.77-18.19l-1.76-2.51c-.6-.83-1.04-1.75-1.57-2.62a54.41 54.41 0 0 1-2.8-5.42 73.8 73.8 0 0 1-4.26-11.36c-.76-2.9-1.37-5.93-1.08-8.85.09-.72.25-1.44.6-1.99.17-.27.4-.48.64-.55.25-.07.53 0 .81.16.27.13.57.43.74.6l.67.92 1.35 1.83c3.73 4.78 7.98 9.04 12.31 13.14 4.35 4.08 8.85 7.95 13.42 11.68 2.28 1.87 4.59 3.69 6.91 5.49l3.5 2.66 1.04.77c.07.1.15 0 .23-.04l.21-.12c.08-.03.15-.07.23-.09.15-.05.31-.09.47-.11a5.8 5.8 0 0 1 2.03.09c2.74.64 5.17 2.34 7.38 4.12.56.44 1.08.94 1.63 1.41.53.48 1.13.93 1.69 1.39.56.48 1.16.89 1.77 1.28l1.81 1.21a219.75 219.75 0 0 0 15.06 8.28c10.12 5.2 20.21 10.15 29.98 15.38 4.89 2.62 9.71 5.27 14.42 8.07 2.37 1.37 4.66 2.84 6.97 4.27 2.25 1.51 4.55 2.95 6.71 4.55a75.6 75.6 0 0 1 20.85 23.76 70.3 70.3 0 0 1 6.09 14.32c1.45 4.94 2.35 10.06 2.11 15.11-.1 2.54-.65 4.97-1.59 7.33a142.7 142.7 0 0 1-2.82 7.02c-1.94 4.62-4.1 9.26-4.67 14.3-.43 4.65.63 7.53.87 8.06.15-.61-.7-3.5-.19-7.98.55-4.9 2.69-9.51 4.65-14.15 1-2.32 1.96-4.68 2.85-7.08a22.63 22.63 0 0 0 1.62-7.56c.23-5.19-.7-10.38-2.18-15.38a70.95 70.95 0 0 0-6.19-14.48 76.2 76.2 0 0 0-21.13-23.97c-2.18-1.63-4.5-3.05-6.76-4.58-2.33-1.42-4.62-2.91-7-4.28a380.6 380.6 0 0 0-14.45-8.08c-19.53-10.56-40.58-19.43-59.49-33.1a6.18 6.18 0 0 0-2.31-.02c-.19.04-.4.1-.58.17l-.13.05-.86-.64-3.48-2.65c-2.3-1.79-4.6-3.6-6.87-5.47a260.53 260.53 0 0 1-13.34-11.63c-4.3-4.07-8.52-8.31-12.19-13.03l-1.32-1.8-.7-.94c-.29-.29-.58-.58-.98-.78-.38-.2-.88-.33-1.37-.18a1.9 1.9 0 0 0-1.04.88c-.45.74-.6 1.53-.7 2.3-.3 3.12.34 6.15 1.1 9.1a74.56 74.56 0 0 0 4.31 11.51 55.93 55.93 0 0 0 2.84 5.49c.54.88.99 1.83 1.6 2.66l1.78 2.55c4.87 6.72 10.78 12.64 16.91 18.32a273.43 273.43 0 0 0 19.41 16.17c1.68 1.29 3.39 2.56 5.1 3.81l2.59 1.86.16.12.08.06.04.03c-.06.16.74-1.2.38-.64l-.35-.19-.7-.39-1.39-.78-11.15-6.33a989.05 989.05 0 0 1-22.29-13.13c-3.7-2.26-7.38-4.57-11.02-6.98l-2.69-1.85c-.89-.63-1.75-1.29-2.63-1.94a.59.59 0 0 0-.16-.1l-.1-.04-.2-.08-.39-.16c-.27-.09-.54-.19-.82-.26a5.64 5.64 0 0 0-1.75-.2c-.6.04-1.22.23-1.73.61a3.1 3.1 0 0 0-1.06 1.5 7.46 7.46 0 0 0-.21 3.44c.16 1.12.46 2.21.82 3.27a34.36 34.36 0 0 0 2.85 6.04 56.92 56.92 0 0 0 8.08 10.63c1.64 1.52 3.23 3.09 4.98 4.48.86.71 1.71 1.44 2.59 2.13l2.66 2.04c1.76 1.38 3.62 2.64 5.43 3.96l5.56 3.81 2.83 1.86a484 484 0 0 0 23.64 14.46l5.99 3.39.75.42.09.05c-.04.16.64-1.27.32-.68l-.05-.02-.19-.09-.38-.19-1.54-.76-3.03-1.47-12.23-6.06c-8.12-4.04-16.2-8.06-24.15-12.17l-2.97-1.56-1.46-.81c-.49-.26-1-.6-1.67-.7-.34-.04-.83.04-1.1.42-.25.37-.23.72-.24 1.03.03.63.2 1.19.39 1.74.39 1.09.9 2.1 1.45 3.08a44.54 44.54 0 0 0 11.01 12.52l.33.26.08.06c0 .01 0-.02 0 0l.14.86c.16.55.3 1.11.55 1.62.88 2.1 2.26 3.9 3.71 5.56a72.24 72.24 0 0 0 9.75 8.86c6.9 5.37 14.19 10.06 21.36 14.77 3.59 2.33 7.07 4.83 10.76 7.01a98.03 98.03 0 0 0 11.35 5.83c.98.42 1.96.82 2.96 1.18l.22.08.21.27.49.62 1 1.23c1.34 1.63 2.72 3.21 4.14 4.76a83.38 83.38 0 0 0 9.1 8.64c.67.52 1.36 1.02 2.04 1.53.7.48 1.42.93 2.12 1.4.74.4 1.47.83 2.23 1.2l1.16.49.48.2.01.04.1.3a16.9 16.9 0 0 0 2.27 4.34 31.8 31.8 0 0 0 2.92 3.6c4.82 5.13 9.01 7.54 9.79 7.64-.56-.56-4.49-3.03-9.24-8.14-1-1.07-1.96-2.25-2.85-3.51a16.19 16.19 0 0 1-2.17-4.14l-.1-.28-.08-.23-.05-.14c-.02-.04-.09-.05-.13-.07l-.67-.28-1.12-.47c-.73-.36-1.44-.77-2.16-1.16l-2.08-1.37c-.67-.5-1.35-.99-2.01-1.51a83.27 83.27 0 0 1-9-8.54 122.85 122.85 0 0 1-4.11-4.72l-.99-1.22-.49-.61-.24-.31-.12-.16c-.05-.04-.12-.05-.18-.07l-.2-.07c-.98-.35-1.95-.74-2.91-1.16a97.68 97.68 0 0 1-11.24-5.77c-3.65-2.15-7.11-4.64-10.71-6.98-7.16-4.7-14.43-9.39-21.29-14.71a72.75 72.75 0 0 1-9.65-8.74 21.06 21.06 0 0 1-3.62-5.34c-.23-.48-.38-.99-.53-1.5-.07-.25-.09-.52-.14-.77l-.04-.26c-.02-.07-.01-.14-.04-.2l-.16-.13-.35-.27a44.34 44.34 0 0 1-10.87-12.26 18.6 18.6 0 0 1-1.42-2.95 6.16 6.16 0 0 1-.38-1.52c-.02-.24-.01-.49.07-.63.06-.14.13-.18.34-.17.4.01.9.28 1.36.54l1.48.82 2.98 1.57c7.97 4.12 16.05 8.14 24.19 12.19l12.25 6.07 3.08 1.52 1.54.76.39.19.19.09.1.05.05.02c.71-1.32.17-.38.32-.68l-.75-.42-5.99-3.39a494.82 494.82 0 0 1-23.72-14.51z"></path><path d="M492.07 191.32l.03.02-.03-.02z" fill="#71a3c3"></path><path class="st9" d="M492.28 191.01c-.02-.01-.07.05-.21.31-.15.28-.17.34-.15.34l.36-.65h-.01l-.01.01a.14.14 0 0 0-.03.04l-.15.26-.13.27-.02.06v.01l.35-.65z"></path><path class="st11" d="M469.16 139.88c-3.68-2.2-8.95-4.66-7.39.46 2.33 7.67 15.67 20 15.67 20S470.1 159 478.77 174c4.79 8.29 8.08 12.81 10.07 15.18a3 3 0 0 1 .54 2.54c-.24 1.25 1.07 5.03 7.39 15.28 12.33 20 22.58 29.67 22.58 29.67s2.67 8.21 5.52 17.15c-10.18-4.04-22.43-20.15-22.43-20.15s-9-3-20.67-11-39-24-40-34.67c-11-8.33-16.67-21.33-11-18 5.67 3.33 46.33 23.33 46.33 23.33s-45-24.67-57-39.33c-12-14.67-11.33-25-3.33-21.33 11 8.67 52.33 31.67 52.33 31.67S431.1 138 420.44 117c-10.67-21-7.33-30-3.67-26 10.67 15.67 39 36.33 39 36.33-2.98 1.25 7.74 8.79 13.39 12.55z"></path><path class="st9" d="M425.66 138.35a204.4 204.4 0 0 1-5.74-3.83c-.95-.65-1.84-1.35-2.77-2.03-.06-.04-.09-.08-.24-.16l-.22-.09-.41-.17c-.28-.11-.57-.19-.85-.29a5.85 5.85 0 0 0-1.83-.21c-.63.05-1.28.26-1.79.68a3.41 3.41 0 0 0-1.03 1.6 8 8 0 0 0-.1 3.57 24 24 0 0 0 2.3 6.54 50 50 0 0 0 3.53 5.9 47.82 47.82 0 0 0 4.22 5.38l1.16 1.26.58.63.62.58 2.5 2.32c.86.74 1.74 1.45 2.6 2.18a59.7 59.7 0 0 0 2.64 2.12 280.02 280.02 0 0 0 22.13 15.19A537.35 537.35 0 0 0 475.74 193l.72.4.36.2.09.05c.68-1.33.14-.39.27-.7l-.18-.09-1.47-.72-2.94-1.45-5.86-2.89-11.64-5.78c-7.71-3.87-15.4-7.66-22.9-11.65l-1.39-.77c-.49-.26-1-.56-1.75-.48-.41.05-.74.45-.82.78-.09.34-.08.65-.04.93a7 7 0 0 0 .42 1.62 26.97 26.97 0 0 0 3.11 5.62 46.39 46.39 0 0 0 8.63 9.28l1.07.85.12.71c.03.27.14.52.21.79.31 1.04.81 2 1.35 2.91a30.37 30.37 0 0 0 3.92 4.95 82.48 82.48 0 0 0 9.38 8.19c6.56 5.02 13.44 9.48 20.21 13.92 3.4 2.19 6.67 4.56 10.14 6.64 3.44 2.1 6.98 4 10.62 5.67.91.42 1.83.81 2.75 1.19l1.4.55.69.25.11.14.23.29c1.24 1.56 2.51 3.08 3.82 4.57a98.71 98.71 0 0 0 8.31 8.43c.74.65 1.5 1.28 2.25 1.9.79.59 1.54 1.22 2.36 1.77.81.55 1.62 1.12 2.48 1.59.43.24.84.52 1.29.71l1.77.82c.21.09.46.23.62.27l-.22-.68-.36-1.13-.44-1.38-.89-2.76-1.77-5.5-1.76-5.47-.22-.68c-.05-.11-.03-.21-.18-.44l-.29-.29-1-1.01a75.8 75.8 0 0 1-1.94-2.08 149.3 149.3 0 0 1-7.25-8.71 204.08 204.08 0 0 1-12.63-18.44 111.93 111.93 0 0 1-5.36-9.6 24.3 24.3 0 0 1-1.04-2.49 8.81 8.81 0 0 1-.35-1.26c-.1-.44-.03-.72.03-1.27a3.64 3.64 0 0 0-.2-1.49c-.17-.5-.55-.9-.81-1.22a48.7 48.7 0 0 1-1.65-2.14c-2.13-2.9-4.07-5.94-5.92-9a75.58 75.58 0 0 1-5.03-9.36 14.61 14.61 0 0 1-1.25-4.58c-.06-.76.04-1.55.46-2.09.2-.28.48-.46.8-.59l.25-.07c.1-.03.12-.02.35-.06l.31-.01.4.05.83.11c.24.07.05-.07.03-.1l-.19-.18-.43-.4-.78-.74-.86-.84-1.7-1.7c-1.12-1.14-2.21-2.3-3.28-3.47a70.57 70.57 0 0 1-5.92-7.33c-.43-.65-.88-1.29-1.26-1.96-.42-.66-.76-1.34-1.09-2.03-.19-.34-.31-.7-.44-1.05-.13-.36-.29-.71-.37-1.07-.19-.7-.29-1.52.03-1.95.22-.31.73-.37 1.2-.32.48.05.94.17 1.36.3.86.28 1.59.6 2.21.88 1.24.57 2.03.97 2.34 1.04-.2-.23-.91-.76-2.12-1.44-.61-.34-1.34-.71-2.24-1.04a7.05 7.05 0 0 0-1.49-.38 2.75 2.75 0 0 0-.9.02c-.31.06-.67.22-.91.52a2.1 2.1 0 0 0-.36 1.33c.01.43.1.83.2 1.23.09.4.26.76.39 1.14.14.37.27.76.46 1.1.35.72.7 1.43 1.13 2.09.39.69.84 1.34 1.28 2a70.47 70.47 0 0 0 5.98 7.41c1.07 1.18 2.17 2.34 3.29 3.49l1.71 1.71.87.84.09.09c.01.01.03.02.01.02h-.04c.03 0-.17.01-.25.05l-.33.1c-.43.17-.84.44-1.12.83a3.75 3.75 0 0 0-.6 2.55c.13 1.7.65 3.3 1.3 4.81 1.39 3.33 3.26 6.42 5.1 9.51 1.87 3.08 3.82 6.15 5.99 9.09.54.73 1.1 1.46 1.69 2.17.32.37.53.64.66 1.04a3.05 3.05 0 0 1 .06 1.52c-.01.13-.04.28-.03.41 0 .26.05.51.09.75.11.47.24.93.4 1.37.32.88.69 1.73 1.09 2.57 1.61 3.34 3.5 6.52 5.43 9.7 3.89 6.34 8.1 12.57 12.74 18.56a141.2 141.2 0 0 0 9.3 10.87l.99.99.4 1.24 1.77 5.49 1.77 5.52.89 2.77.4 1.24c.01.02.01.02-.02.01l-.57-.26c-.22-.1-.44-.19-.65-.31l-1.25-.72c-.85-.45-1.61-1.06-2.42-1.58a56.7 56.7 0 0 1-4.52-3.68 110.07 110.07 0 0 1-12.19-13.21l-.27-.09-.35-.13-.69-.26-1.38-.55a102.05 102.05 0 0 1-13.26-6.88c-3.42-2.08-6.7-4.46-10.12-6.65-6.78-4.45-13.64-8.91-20.16-13.93a80.55 80.55 0 0 1-9.24-8.18 26.15 26.15 0 0 1-3.71-4.89c-.51-.88-.9-1.82-1.16-2.79-.06-.24-.08-.49-.13-.73l-.04-.23-.03-.2c-.01-.06-.09-.09-.13-.13l-.36-.28a45.39 45.39 0 0 1-9.58-10.21 22.7 22.7 0 0 1-2.88-5.49 4.09 4.09 0 0 1-.23-1.42c.06-.45.18-.51.65-.42.44.11.86.36 1.33.62l1.4.78c7.52 3.98 15.19 7.77 22.89 11.63l11.62 5.77 5.84 2.89 2.93 1.45.73.36.37.18.18.09c-.28.61.5-.77.37-.65l-.09-.05-1.43-.79a543.84 543.84 0 0 1-22.67-13.45 278.17 278.17 0 0 1-21.97-15.12c-3.49-2.78-7-5.61-9.93-8.98a50.94 50.94 0 0 1-4.13-5.31 46.22 46.22 0 0 1-3.44-5.79 22.83 22.83 0 0 1-2.18-6.31 7.31 7.31 0 0 1 .12-3.2 2.3 2.3 0 0 1 2.2-1.68c.51-.04 1.05.08 1.57.21.26.09.52.15.77.27l.38.16.13.05.16.12c.93.68 1.83 1.39 2.78 2.04 1.88 1.32 3.8 2.58 5.73 3.83a653.13 653.13 0 0 0 23.79 14.36l11.93 6.85 5.96 3.37 1.49.83.37.21.09.05c-.34.58.52-.75.41-.63l-.04-.03-.17-.12-.69-.49-2.76-1.99a297.03 297.03 0 0 1-21-16.94c-6.64-5.96-12.97-12.2-18.35-19.12-.69-.85-1.27-1.78-1.91-2.66-.61-.9-1.3-1.76-1.8-2.72l-1.63-2.82c-.51-.96-.99-1.94-1.45-2.92a75.81 75.81 0 0 1-4.65-12.08 34.03 34.03 0 0 1-1.17-6.28c-.08-1.05-.09-2.11.07-3.13.09-.5.2-1.01.41-1.43.21-.42.52-.78.88-.82.36-.06.79.14 1.15.47l.26.26.06.06.03.05.12.16.48.65c.65.86 1.25 1.75 1.93 2.57l2.05 2.47 2.14 2.37a151.7 151.7 0 0 0 9.01 8.93 243.5 243.5 0 0 0 9.44 8.26c3.19 2.66 6.42 5.25 9.68 7.76l2.45 1.87 1.23.92.11.08c.01 0-.02 0-.09.1-.1.18-.17.37-.16.56.03.73.39 1.16.69 1.6.32.43.68.81 1.04 1.19a34.23 34.23 0 0 0 2.38 2.17 65.4 65.4 0 0 0 3.18 2.46c3.79 2.75 6.39 4.3 6.98 4.46-.4-.51-2.85-2.21-6.57-5.01a94.31 94.31 0 0 1-3.12-2.47l-.1-.09a30.39 30.39 0 0 1-2.22-2.02c-.34-.36-.68-.72-.97-1.11-.28-.37-.55-.82-.55-1.14l.01-.1a.1.1 0 0 0 .03-.07c-.06 0 .34-.25.56-.36l.19-.1c.07-.03-.06-.07-.08-.11l-.31-.22-.53-.39-1.22-.91-2.44-1.86c-3.24-2.5-6.45-5.07-9.63-7.72a240.75 240.75 0 0 1-9.39-8.21 155.76 155.76 0 0 1-8.95-8.86l-2.13-2.35-2.02-2.44c-.69-.8-1.27-1.69-1.91-2.53-.59-.77-1.28-2.02-2.71-2.09-.74.03-1.28.58-1.55 1.1a5.64 5.64 0 0 0-.54 1.64 14.63 14.63 0 0 0-.11 3.3c.15 2.18.61 4.32 1.17 6.42a75.23 75.23 0 0 0 4.66 12.21 61.06 61.06 0 0 0 6.84 11.27c5.42 6.99 11.78 13.26 18.44 19.25a296.48 296.48 0 0 0 21.07 17.02l2.77 2 .7.5.18.12.09.06.04.03c-.35.57.53-.74.41-.62l-.37-.21-1.49-.83-5.97-3.37-11.95-6.86c-7.98-4.77-15.97-9.5-23.84-14.52z"></path><path class="st8" d="M682.77 260.5c-.5-17-2.5-24.5-7.5-30s-17.5-.5-26.5 13"></path><path class="st9" d="M669.77 228.69a7.43 7.43 0 0 1 3.8.92c.56.32 1.04.75 1.48 1.21.43.51.87.99 1.25 1.53a22.62 22.62 0 0 1 3.41 6.73 44.06 44.06 0 0 1 1.58 6.9c.36 2.24.56 4.42.74 6.48.38 4.54.52 7.44.75 8.05.17-.58.23-3.54-.07-8.1a81.74 81.74 0 0 0-.72-6.57 44.73 44.73 0 0 0-1.59-7.03 23.16 23.16 0 0 0-3.52-6.93c-.39-.55-.85-1.05-1.29-1.57a7.27 7.27 0 0 0-1.66-1.35 8.26 8.26 0 0 0-4.17-1.02c-2.65.02-5.1.93-7.27 2.02a31 31 0 0 0-5.82 3.96 38.63 38.63 0 0 0-5.85 6.28 15.66 15.66 0 0 0-2.05 3.3c.33-.25 1.13-1.33 2.48-2.96a47.86 47.86 0 0 1 5.9-6.06 30.44 30.44 0 0 1 5.68-3.85 15.92 15.92 0 0 1 6.94-1.94z"></path><path class="st10" d="M680.76 259.61c-.6-20.58-5.37-29.11-8.49-27.27-3.12 1.84-11.8 11.35-14.35 27.78 15-3.3 22.84-.51 22.84-.51z"></path><path class="st9" d="M667.29 235.42a27.77 27.77 0 0 0-4.55 7.05 60.35 60.35 0 0 0-2.62 6.7c-1.41 4.36-2.05 7.2-2.06 7.83.38-.49 1.23-3.32 2.71-7.61a63.8 63.8 0 0 1 2.65-6.62 27.34 27.34 0 0 1 4.42-6.83c.86-.98 1.87-1.76 2.89-2.41 1.04-.55 2.18-1.22 3.15-1.12.71.06 1.17.7 1.52 1.38a39.22 39.22 0 0 1 2.23 5.53c.64 2.02.93 3.35 1.13 3.69.05-.4-.07-1.76-.6-3.84a30.91 30.91 0 0 0-2.11-5.7c-.19-.37-.4-.76-.74-1.11a2.18 2.18 0 0 0-1.34-.69c-1.41-.1-2.47.63-3.62 1.21-1.1.69-2.16 1.53-3.06 2.54z"></path><path class="st7" d="M676.77 275c-16-7.5-33.5-23.5-32-33s10.8-6.59 10.8-6.59-3.55-7.88-15.67-.89c-12.13 6.98-10.91 32.7 10.37 53.98 12.5 12.5 36.5 19.5 36.5 19.5 7-2-.53-27.69-10-33z"></path><path class="st21" d="M669.66 271.18a78.38 78.38 0 0 0 7.1 3.83c9.47 5.31 17 31 10 33 0 0-20.16-5.89-33.15-16.5-13.61-26.94 3.25-25.41 16.05-20.33z"></path><path d="M703.64 261.09c8.92.36 19.39 10.8 23.38 23.33 3.99 12.52 0 22.38-8.92 22.02-8.92-.36-19.39-10.8-23.38-23.33s0-22.38 8.92-22.02zm45.9 17.98c3.74 11.38 12.7 21.73 20.02 23.12 7.32 1.39 10.22-6.71 6.48-18.09s-12.7-21.73-20.02-23.12c-7.31-1.39-10.21 6.71-6.48 18.09z" fill="#4495d7" stroke="#3e4147" stroke-width=".75" stroke-linecap="round" stroke-linejoin="round" stroke-miterlimit="10"></path><path class="st26" d="M749.54 279.07a35.11 35.11 0 0 1-.98-3.62c8.28-4.53 18.46 8.33 25.81 25.95a6.33 6.33 0 0 1-4.82.78c-7.31-1.38-16.27-11.73-20.01-23.11zM694.72 283.11a32.95 32.95 0 0 1-1.4-6.52c9.73-4.65 24.94 10.84 31.7 27.33a9.04 9.04 0 0 1-6.92 2.52c-8.92-.36-19.39-10.8-23.38-23.33z"></path><path class="st4" d="M703.64 261.09c8.92.36 19.39 10.8 23.38 23.33 3.99 12.52 0 22.38-8.92 22.02-8.92-.36-19.39-10.8-23.38-23.33s0-22.38 8.92-22.02zm45.9 17.98c3.74 11.38 12.7 21.73 20.02 23.12 7.32 1.39 10.22-6.71 6.48-18.09s-12.7-21.73-20.02-23.12c-7.31-1.39-10.21 6.71-6.48 18.09z"></path><path class="st9" d="M524.42 228.98a16.58 16.58 0 0 0-4.17-3.32c-.39-.2-.81-.39-1.37-.39-.28.01-.59.13-.8.34-.21.21-.32.47-.39.69a7.74 7.74 0 0 0-.25 2.51c.1 1.64.54 3.12.87 4.52.34 1.41.68 2.77 1.02 4.05 1.22 4.41 2.26 7.14 2.63 7.66.02-.61-.84-3.43-1.96-7.84-.34-1.29-.67-2.64-.99-4.06-.33-1.43-.76-2.88-.83-4.4-.03-.75.03-1.54.24-2.25.11-.34.25-.47.53-.48.28 0 .66.13 1.01.33 1.42.73 2.71 1.9 3.93 3.15a61.67 61.67 0 0 1 5.67 7.11c3.95 5.71 6.13 9.87 6.71 10.4-.14-.8-2.13-5.01-6.1-10.82a65.36 65.36 0 0 0-5.75-7.2z"></path><path class="st9" d="M510.09 194.65c.45 1.76 1.11 3.37 1.61 5.02a118.05 118.05 0 0 0 5.5 13.77c1.33 2.84 2.72 5.5 4.01 8.08l3.73 7.37c2.1 4.05 3.5 6.61 3.94 7.06-.08-.61-1.32-3.28-3.33-7.37l-3.72-7.41c-1.29-2.59-2.68-5.26-3.99-8.08a123.97 123.97 0 0 1-5.44-13.67c-.5-1.65-1.16-3.27-1.59-4.95-.19-.76-.35-1.53-.39-2.28-.04-.74.03-1.5.41-2.02.82-1.17 2.43-1.32 3.84-1.09 1.44.23 2.83.76 4.15 1.35a39.79 39.79 0 0 1 7.66 4.68c1.14.86 2.12 1.65 2.94 2.32 1.65 1.35 2.68 2.24 3.04 2.4-.2-.36-1.1-1.37-2.68-2.81a61.42 61.42 0 0 0-2.87-2.44 37.11 37.11 0 0 0-7.77-4.83 17.12 17.12 0 0 0-4.34-1.41 6.57 6.57 0 0 0-2.42.02c-.82.16-1.63.65-2.15 1.36a3.93 3.93 0 0 0-.56 2.51c.05.82.22 1.63.42 2.42z"></path><path class="st9" d="M495.34 174.26l-18.94-16c-3.51-2.91-5.8-4.72-6.39-4.96.31.53 2.49 2.51 5.94 5.49l18.9 16.05c3.26 2.75 6.33 5.4 9.29 7.72a56.43 56.43 0 0 0 7.09 4.82c.94.53 1.73.91 2.34 1.17.17.07.34.11.51.09.17-.03.36-.15.32-.37-.08-.16-.2-.17-.29-.19-.12-.02-.16.13-.11.15-.02-.16.22-.02.22.08-.02.08-.28.11-.53-.06l-2.19-1.35a80.3 80.3 0 0 1-6.91-4.93c-2.91-2.29-5.99-4.95-9.25-7.71zM498.18 200.03c6.56 7.36 12.6 13.72 17.59 19.02 3.16 3.29 5.22 5.35 5.77 5.66-.24-.56-2.19-2.78-5.28-6.13-4.99-5.36-11.02-11.74-17.53-19.05a379.87 379.87 0 0 1-8.23-9.53c-4.48-5.33-7.33-9.04-8.01-9.47.29.76 2.96 4.54 7.44 9.94 2.5 3.01 5.28 6.23 8.25 9.56zM473.54 143.79l-6.81-5.41c-3.59-2.82-5.92-4.56-6.52-4.79.32.52 2.56 2.44 6.09 5.32l6.77 5.46 3.31 2.64c5.45 4.34 9.17 7.21 9.91 7.47-.46-.69-3.99-3.64-9.45-8.04l-3.3-2.65zM461.9 199.27a133.27 133.27 0 0 1-22.38-14.17c-3.59-2.79-5.8-4.69-6.4-4.93.31.52 2.42 2.59 5.98 5.47a131.18 131.18 0 0 0 34.34 19.54c6.53 2.5 11.14 3.55 11.91 3.54-.67-.5-5.13-1.68-11.64-4.23a130.52 130.52 0 0 1-11.81-5.22zM500.91 231.71c.28.39.53.73.75 1 2.71 3.69 4.64 5.88 5.16 6.24-.2-.58-1.99-2.92-4.61-6.64-.19-.3-.42-.65-.7-1.04a251.33 251.33 0 0 1-4.39-6.5c-1.56-2.4-2.54-3.95-2.91-4.25.11.47.92 2.1 2.38 4.55a97.22 97.22 0 0 0 2.69 4.25l1.63 2.39zM747.69 281.5c-1-2.53-2.27-4.82-3.83-6.67a14.31 14.31 0 0 0-2.55-2.39 4.91 4.91 0 0 0-3.11-1.05c-1.21 0-2.27.34-3.13.77-.86.43-1.53.92-2.07 1.36a10.8 10.8 0 0 0-1.83 1.81c.29-.11.99-.66 2.1-1.44 1.11-.74 2.73-1.84 4.92-1.81.94.02 1.91.26 2.71.95.86.63 1.66 1.41 2.41 2.29 1.48 1.78 2.71 4 3.68 6.45.9 2.23 1.45 4.48 1.84 6.55.62 3.39.69 6.3.54 8.4-.14 2.11-.48 3.42-.43 3.82.2-.34.72-1.63.97-3.77.27-2.13.26-5.1-.35-8.59-.39-2.1-.95-4.38-1.87-6.68zM733.27 302.72c1.09-5.81.86-11.14.18-15.43-.24-1.13-.42-2.16-.67-3.05-.26-.89-.48-1.68-.7-2.34-.5-1.29-.85-2.1-1.04-2.36 0 .31.21 1.17.6 2.48l.56 2.35c.21.9.36 1.92.57 3.03a46.16 46.16 0 0 1-.63 17.08c-.15.62-.28 1.24-.44 1.84-.37 1.18-.66 2.35-1.09 3.42-2.32 6.54-5.37 10.2-5.53 10.99a17.32 17.32 0 0 0 2.41-3.05 35.98 35.98 0 0 0 3.81-7.69c.44-1.08.74-2.27 1.12-3.47.17-.61.3-1.24.45-1.87.16-.62.3-1.27.4-1.93z"></path><ellipse transform="rotate(-58.8 710.67 270.11)" class="st27" cx="710.71" cy="270.12" rx="1.83" ry="4.1"></ellipse><ellipse transform="rotate(-58.8 760.02 269.1)" class="st27" cx="760.06" cy="269.1" rx="1.83" ry="4.1"></ellipse><ellipse transform="rotate(-40.42 669 284.75)" class="st21" cx="669.02" cy="284.75" rx="3.42" ry="6.31"></ellipse><path class="st9" d="M598.33 214.24a12.63 12.63 0 0 1-2.32 2.84 6.55 6.55 0 0 1-2.45 1.39c-1.56.48-2.62.12-2.92.16.15.23 1.3.84 3.09.42a6.85 6.85 0 0 0 2.77-1.44c.91-.77 1.72-1.81 2.46-2.97 2.86-4.68 4.76-8.01 4.77-8.62-.54.32-2.54 3.53-5.4 8.22zM620.83 224.16l-1.67 6.48c-1.16 4.41-1.92 7.22-1.9 7.86.36-.49 1.31-3.29 2.56-7.68.53-1.82 1.12-4.02 1.74-6.48l.78-3.17c1.63-6.78 2.44-11.41 2.34-12.19-.41.72-1.39 5.22-3.06 12.02l-.79 3.16zM632.2 224.89c1.34-4.37 2.18-7.37 2.04-7.89-.43.32-1.42 3.35-2.75 7.67s-2.21 7.38-2.04 7.89c.42-.35 1.41-3.31 2.75-7.67z"></path><path class="st9" d="M628.27 227.67l-2.35 1.36a114.67 114.67 0 0 1-4.84 2.62c-1.22.59-2.02.99-2.32.87.09.17.46.17.88.08.43-.09.98-.27 1.62-.53a54.3 54.3 0 0 0 4.99-2.44c.69-.35 1.5-.8 2.39-1.31l3.07-1.79c1.64-.97 3.09-1.86 4.3-2.63 2.43-1.53 3.94-2.58 4.23-2.95-.47.12-2.06 1-4.53 2.42l-7.44 4.3zM599.23 293.09a17.9 17.9 0 0 0 3.6-1.61 10.06 10.06 0 0 0 2.41-2.03c1.16-1.39 1.48-2.51 1.49-2.8-.28.16-.77 1.18-1.94 2.41-.58.62-1.36 1.25-2.34 1.82-.98.57-2.15 1.06-3.46 1.5-2.69.89-4.8 2.16-6.22 3.2-1.42 1.05-2.22 1.84-2.34 2.13.32-.05 1.23-.69 2.67-1.62a26.46 26.46 0 0 1 6.13-3zM584.65 280.27c-.06-4.93-.46-8.27-.79-8.73-.28.49-.02 3.9.04 8.74.05 4.85-.13 8.25.16 8.74.32-.47.64-3.82.59-8.75zM610.91 170.29c.14.73.27 1.37.41 1.9.95 4.47 1.79 7.27 2.11 7.82.07-.61-.58-3.49-1.44-7.95l-.34-1.91-.57-3.11-.82-4.96c-.45-2.83-.73-4.64-.94-5.06-.09.48 0 2.29.33 5.13.17 1.42.4 3.09.71 4.98l.55 3.16z"></path><path class="st9" d="M608.06 169.48c-2.89-4.11-4.46-7.17-4.98-7.47-.04.56 1.47 3.79 4.36 7.9 2.91 4.11 5.44 6.62 5.98 6.76-.11-.58-2.46-3.09-5.36-7.19zM609.29 175.28c-1.89-.91-3.22-1.46-3.52-1.28.06.37 1.34 1.06 3.2 1.96 1.86.9 3.19 1.47 3.52 1.28-.05-.35-1.31-1.04-3.2-1.96zM630.9 141.88a21.86 21.86 0 0 1 2.03 7c.3 2.36.22 4.69.07 6.92-.31 4.47-1 8.6-1.2 12.4a33.2 33.2 0 0 0 .1 5.56c.16 1.38.39 2.24.51 2.53.08-.3.01-1.18-.05-2.55-.02-1.37-.06-3.23.13-5.49.22-3.78.93-7.91 1.25-12.44.15-2.26.23-4.63-.07-7.05a22.6 22.6 0 0 0-2.1-7.23 25.85 25.85 0 0 0-3.98-5.57 45.6 45.6 0 0 0-2.28-2.32c-.39-.37-.76-.73-1.16-1.09-.41-.35-.88-.7-1.45-.86a4.22 4.22 0 0 0-2.67.31 18.8 18.8 0 0 0-5.21 3.19 10.82 10.82 0 0 0-2.59 2.91c.36-.21 1.27-1.21 2.93-2.49a22 22 0 0 1 5.12-2.94c.71-.27 1.5-.48 2.22-.27.82.23 1.53 1.06 2.3 1.77a48.6 48.6 0 0 1 2.24 2.29 25.4 25.4 0 0 1 3.86 5.42zM646.85 181.87c.7-.4 1.31-.76 1.82-1.08 3.94-2.31 6.41-3.85 6.84-4.32-.6.11-3.21 1.49-7.18 3.72-.53.28-1.16.63-1.85 1.03l-5.8 3.38a88.28 88.28 0 0 0-4.88 3.02l.13.25c.46-.25.73-.42.84-.53-.17.02-.47.11-.95.28l.12.24c.99-.46 2.72-1.38 5.04-2.67l5.87-3.32zM645.46 185.91c3.32-2.98 5.31-5.31 5.4-5.82-.53.09-2.64 2.34-5.9 5.26-3.27 2.92-5.74 4.77-5.89 5.28.53-.03 3.06-1.75 6.39-4.72zM698.87 85.54a.3.3 0 0 0-.01.16c-1.14 4.43-1.66 7.3-1.61 7.94.33-.52 1.05-3.37 2.27-7.76a.46.46 0 0 0 .07-.14l.01-.06v-.01l.19-.73.39-1.42 1.37-4.84c.79-2.75 1.3-4.52 1.29-4.99-.29.39-.96 2.08-1.86 4.79-.45 1.36-.95 2.97-1.48 4.81l-.4 1.42-.2.74-.01.03-.02.06zM681.75 85.1c2.42-2.91 4-4.95 4.02-5.43-.47.08-2.2 2.07-4.6 4.95-2.39 2.88-4.03 4.95-4.02 5.43.47-.11 2.18-2.04 4.6-4.95zM714.21 29.34c-.03-2.86-.48-4.77-.81-4.99-.28.32.03 2.24.06 5 .02 2.76-.25 4.69.03 5 .32-.24.74-2.16.72-5.01zM727.56 27.72a11.55 11.55 0 0 1-2.09 4.83c-.82 1.03-1.59 1.45-1.71 1.7.23.03 1.17-.25 2.17-1.31 1.02-1.04 1.88-2.86 2.36-5.05.49-2.2.64-4.07.8-5.44.14-1.38.17-2.26.04-2.5-.18.2-.39 1.05-.64 2.4-.27 1.36-.46 3.24-.93 5.37z"></path><path class="st9" d="M732.7 14.83l.44 1.65.19.69-.03.03a.97.97 0 0 1-.24.15c-.78.31-1.84.03-2.8.41-.67.24-1.03.86-1.27 1.29l-.72 1.28-1.17 2.12a14.37 14.37 0 0 0-1.1 2.32c.23-.2.75-.92 1.49-2.08l1.29-2.06.77-1.26c.27-.44.53-.84.96-.98.33-.13.77-.15 1.24-.16.47-.02 1.01.01 1.61-.22.15-.07.29-.15.42-.26.06-.03.17-.17.25-.26.04-.05.1-.09.12-.15l-.05-.19-.23-.88-.44-1.65-.4-1.5c-.07-.24-.12-.49-.24-.76a1.38 1.38 0 0 0-.66-.69c-.54-.22-.92-.22-1.33-.32l-1.2-.22-2.23-.41-3.71-.64a22.47 22.47 0 0 0-3.85-.45c.36.2 1.67.53 3.75.99l3.67.77 2.23.44 1.2.24c.4.09.89.14 1.16.27.27.1.37.46.5.98.11.49.25 1 .38 1.51z"></path><path class="st9" d="M727.79 5c-.74-.7-1.44-1.37-2.19-1.86a4.67 4.67 0 0 0-2.21-.82c-1.41-.11-2.15.62-2.18.83.24.01.94-.43 2.12-.23a4.6 4.6 0 0 1 1.88.82c.66.46 1.32 1.11 2.06 1.81l2.05 1.91c.32.29.59.54.74.79.15.25.15.5.11.78-.1.56-.33 1.08-.32 1.52-.01.45.23.7.34.73.01-.13-.06-.36.04-.69.07-.34.34-.76.54-1.43a1.7 1.7 0 0 0-.09-1.22c-.21-.41-.54-.71-.83-1-.64-.58-1.32-1.23-2.06-1.94z"></path><path class="st9" d="M732.09 6.27a156.91 156.91 0 0 0-3.73-4.22c-.25-.26-.43-.48-.69-.71a1.8 1.8 0 0 0-.75-.37c-.24-.06-.48-.02-.62.1-.14.12-.14.26-.13.31.52-1.01 2.36 2.07 5.36 5.37.72.87 1.5 1.63 1.91 2.37.41.74.36 1.52.19 2.16-.39 1.28-.92 2.07-.88 2.34.22-.13.89-.76 1.45-2.15a3.3 3.3 0 0 0-.11-2.67c-.52-.92-1.28-1.64-2-2.53zM721.71 9.53l1.18.39.62.19.91.24c.52.12.87.13 1 .02-.03-.17-.32-.37-.81-.59a14.2 14.2 0 0 0-.87-.35l-.44-.16s-.03 0 .01-.03l.76-.36c.42-.22.67-.42.69-.58-.13-.1-.44-.08-.9.04l-.8.24-1.96.74.61.21zM658.7 165.26a34.55 34.55 0 0 0 9.43-7.87c2.93-3.6 3.84-6.5 3.91-7.1-.43.43-1.51 3.21-4.44 6.66a35.22 35.22 0 0 1-9.28 7.66 49.99 49.99 0 0 1-5.27 2.65c-3.18 1.38-5.94 2.28-7.96 2.96-2.02.67-3.32 1.1-3.64 1.33.41.01 1.74-.24 3.8-.8a64.64 64.64 0 0 0 8.1-2.8 50.55 50.55 0 0 0 5.35-2.69z"></path><path d="M629.1 134c1.67 14.67 5.67 21 12.67 24.33 7 3.33 9.33 5.67 13.67 2.67s7.33-10.67 7.67-11.67c.33-1-4 .33-8-2s-6.25-10.58-11.58-16.58c-5.33-6-2.92-6.33-3.25-9-.33-2.67-5.96-1.6-5.96-1.6l-1.49.22s-2.39-7.36-2.39-11.36-14.36-8.99-22.35-10.33c-4.99-.34-6.99 1.66-8.65 1S580.1 90 574.1 85.34c-6-4.67-8.33-6-9.33-6s-16.67 2.67-22 2.33c5.67 8 15.33 13 22.67 17.67 7.33 4.67 7.33 6 12.33 9s14.33 2.33 21.67 5c7.33 2.66 27.18 12.25 29.66 20.66z" fill="#fff8e9" stroke="#3e4147" stroke-width=".75" stroke-linecap="round" stroke-linejoin="round" stroke-miterlimit="10"></path><path d="M661.57 147.35c-5.75 1.75-10.86 1.48-13.5-1s-9.32-8.07-10.3-11.28c-1.75-5.75-.75-11.25.05-7.72.21.95.75-3.04.75-3.04s12.88 7.75 14.25 8.79" fill="#e39d74" stroke="#3e4147" stroke-width=".75" stroke-linecap="round" stroke-linejoin="round" stroke-miterlimit="10"></path><path class="st9" d="M589.51 101.84c-2.72.28-5.15.4-7.16.45-2.27.03-4.14.06-5.48-.05-1.35-.12-2.16-.44-2.47-.49.2.22 1 .71 2.4.95 1.4.23 3.28.28 5.56.29a71.45 71.45 0 0 0 10.73-.83c6.93-1.05 11.4-2.65 12.03-3.09-.83-.04-5.23 1.35-12.14 2.36-1.07.14-2.24.29-3.47.41zM630.53 129.17c.81-2.49 1.78-4.51 2.36-6.04.3-.75.52-1.43.66-1.86.04-.1.08-.16.13-.19.05-.04.14-.03.14.03.03.1-.11.21-.15.1.01.02-.01.06.12-.07.08-.04.1-.12.09-.21 0-.1-.16-.16-.3-.12a.65.65 0 0 0-.35.28c-.27.48-.53 1.06-.89 1.81-.68 1.49-1.69 3.51-2.51 6.05-.82 2.54-1 4.89-.74 6.57.24 1.68.81 2.65 1.03 2.82.05-.31-.31-1.28-.43-2.87-.14-1.6.04-3.8.84-6.3z"></path><path class="st9" d="M635.94 142.11c-.41-.39-.84-.76-1.21-1.15-.41-.4-.74-.74-.98-1.19a9.69 9.69 0 0 1-.63-1.39c-.15-.47-.42-1.02-.57-1.42a2.27 2.27 0 0 1-.12-.63l-.03-.73-.04-1.42c-.02-.92-.01-1.81.03-2.64.19-4.52 1.34-7.25 1.33-7.89-.34.45-1.73 3.22-2.01 7.85a46.95 46.95 0 0 0-.01 4.88c.01.28.07.58.16.84.21.54.4.91.57 1.44.18.5.39 1.01.68 1.5.27.51.7.96 1.09 1.34.39.41.82.78 1.24 1.18a81.74 81.74 0 0 0 4.56 3.72c2.77 2.12 5.1 3.86 6.76 5.2 1.67 1.32 2.66 2.24 3.02 2.42a14.21 14.21 0 0 0-2.66-2.83 128.64 128.64 0 0 0-6.66-5.36c-1.43-1.14-2.98-2.35-4.52-3.72z"></path><path class="st9" d="M648.57 156.92c.97.11 1.83-.05 2.66-.17.83-.14 1.64-.32 2.39-.57a12.78 12.78 0 0 0 3.87-2.05 11.96 11.96 0 0 0 4.15-5.68l-.25-.13c-.26.51-.4.84-.44 1.01.13-.11.36-.38.69-.86l-.26-.13c-.58 1.12-1.71 3.32-4.29 5.24a12.63 12.63 0 0 1-3.7 1.9c-.72.23-1.49.4-2.29.53-.8.12-1.65.26-2.43.16-.7-.08-1.3-.47-1.9-.92-.6-.45-1.21-.88-1.79-1.28-2.92-1.94-5.5-3.31-7.32-4.42-1.83-1.08-2.96-1.83-3.34-1.95.24.33 1.27 1.22 3.05 2.41 1.76 1.21 4.31 2.63 7.19 4.57.57.39 1.15.81 1.75 1.26.61.46 1.36.97 2.26 1.08zM622.19 117.63c1.47 1.16 2.84 2.28 4.09 3.34 1.26 1.04 2.31 2.12 2.63 3.38.28 1.03.25 2.07.26 2.99l.03 2.42c.03 1.37.09 2.26.18 2.56.11-.29.2-1.17.28-2.54l.11-2.43c.02-.92.1-1.99-.19-3.18-.35-1.5-1.57-2.72-2.82-3.77a131.39 131.39 0 0 0-7.93-6.27c-5.65-4.11-9.76-6.43-10.52-6.6.53.63 4.46 3.05 10.08 7.2 1.19.87 2.47 1.85 3.8 2.9zM555.82 77.77c1.6.95 3.11 1.42 4.24 1.6 1.13.19 1.86.12 2.04 0-.3-.37-2.86-.45-5.89-2.24-3.02-1.82-4.31-4.03-4.77-4.12-.02.22.27.9.97 1.8.68.9 1.82 2 3.41 2.96zM550.61 76.97c4.17 1.93 6.9 3.47 7.46 3.43-.23-.48-2.98-2.19-7.14-4.11-4.17-1.92-7.26-2.9-7.77-2.76.33.44 3.27 1.52 7.45 3.44zM547.97 77.76c3.48 1.79 5.99 2.71 6.46 2.6-.22-.44-2.71-1.5-6.12-3.26-3.41-1.77-5.71-3.18-6.2-3.11.18.44 2.38 1.96 5.86 3.77zM545.11 79.67c2 .99 3.87 1.38 5.23 1.46 1.37.09 2.23-.09 2.44-.24-.22-.16-1.07-.17-2.38-.37-1.3-.19-3.07-.6-4.96-1.53a16.97 16.97 0 0 1-4.21-3.03c-.94-.92-1.47-1.6-1.73-1.68.01.25.38 1.05 1.28 2.09.9 1.04 2.34 2.29 4.33 3.3zM541.54 79.53c2.79 1.94 5.2 2.17 5.54 1.97-.23-.39-2.5-.76-5.11-2.58-2.59-1.84-3.7-3.85-4.15-3.94-.08.38.95 2.58 3.72 4.55zM538.24 80.01c3.1.92 5.17 1.69 5.58 1.53-.17-.4-2.26-1.33-5.37-2.25-3.11-.91-5.37-1.26-5.73-1.02.26.37 2.42.83 5.52 1.74z"></path><path class="st30" d="M681.77 144c2 6.99-3.61 4.58-4.8.12a894.24 894.24 0 0 1-4.53-19.12l5.83-.16c-.12 7.12 1.9 13.58 3.5 19.16z"></path><path class="st5" d="M639.33 124.52a42.43 42.43 0 0 0-1.79-5.97c4.73-2.91 12.73-7.64 17.23-9.22 6.67-2.33 17.33-9 19.67-7.67 2.33 1.33 6.24 11.43 4.36 17.69-1.88 6.25-4.69 16.31-6.02 18.31s-4.6 7.1-6.27 9.43c-2 2-6.14 2.9-11.4.23-3.84-1.95-10.06-7.09-14.3-11.16.07-3.9-.67-8-1.48-11.64z"></path><path class="st6" d="M667.94 130c-1.56 1.5-2.35-.54-4.14-.35-1.06.12-1.1.76-2.2.34-.74-.28-1.26-1.1-1.84-1.6-.47 1.28-.51 3.12.43 4.27 1.93 2.37 4.36 2.09 6.41.33"></path><path class="st6" d="M639.33 124.52a42.43 42.43 0 0 0-1.79-5.97c4.73-2.91 12.73-7.64 17.23-9.22 6.67-2.33 17.33-9 19.67-7.67 1.48.85 3.59 5.24 4.45 9.93-6.53-1.77-13.44-2.4-20.03-1.01-3.41.72-5.78 3.75-6.44 7.06l-1.11-.01-4.97 1.38c-1.46 5.04-.62 11.74-.34 14.54.28 2.79 2.46 4.19 3.91 7.82.7 1.75 3.85 4.35 7.04 6.76-.63-.23-1.25-.49-1.85-.8-3.84-1.95-10.06-7.09-14.3-11.16.08-3.91-.66-8.01-1.47-11.65z"></path><path class="st4" d="M639.33 124.52a42.43 42.43 0 0 0-1.79-5.97c4.73-2.91 12.73-7.64 17.23-9.22 6.67-2.33 17.33-9 19.67-7.67 2.33 1.33 6.24 11.43 4.36 17.69-1.88 6.25-4.69 16.31-6.02 18.31s-4.6 7.1-6.27 9.43c-2 2-6.14 2.9-11.4.23-3.84-1.95-10.06-7.09-14.3-11.16.07-3.9-.67-8-1.48-11.64z"></path><path class="st31" d="M674.6 113.84c-2.17-1-4-1.33-5-2.83s.17-2.67.17-2.67 3.33 1.17 3.83 1.5c.5.33 2.33 1.33 3.17 2.83.83 1.5 1.32 2.89 1.32 2.89M658.44 112c2.3-.65 3.83-.83 4.5-1.67.67-.83 1.17-2 1.17-2s-3.47-.92-4.12-.7c-.65.22-4.71 2.03-5.38 2.7-.67.67-1.33 1.67-1.33 1.67"></path><path class="st21" d="M632.44 101c.67 8.67 9.91 18.28 12.72 21.23 3.17 3.33 6.28 6 11.95 4.67 5.67-1.33 7-5.9 10.33-2.23 3.33 3.67 8.08 5.28 11.75.62 3.67-4.67 3.99-10.46-.22-13.87-5.2-2.08-9.2 2.59-9.2 2.59-3.67 2.67-6 .33-8.33-2s-6.33-4.67-12.33-3.33c-8.33 2.67-13.67-3.67-16-10.33-1.34-.68-.67 2.65-.67 2.65z"></path><path class="st31" d="M678.97 111.42c-.5-.2-.99-.32-1.47-.41-1.2-5.7-5.6-5.16-13.06-4.67a61.56 61.56 0 0 0-7.95 2.58c-2.01-.67-4.17.24-7.1.89-5.97 1.77-13.03-3.8-15.63-9.8a61.8 61.8 0 0 1 4.69-14.29c4.35-8.96 14.98-13.7 21.98-11.7 6.33 2.33 21 16.33 20.38 30.45l.02.49c1.57 4.3 1.66 9.12 1.17 13.47a8.1 8.1 0 0 0-3.03-7.01z"></path><path class="st4" d="M678.97 111.42c-.5-.2-.99-.32-1.47-.41-1.2-5.7-5.6-5.16-13.06-4.67a61.56 61.56 0 0 0-7.95 2.58c-2.01-.67-4.17.24-7.1.89-5.97 1.77-13.03-3.8-15.63-9.8a61.8 61.8 0 0 1 4.69-14.29c4.35-8.96 14.98-13.7 21.98-11.7 6.33 2.33 21 16.33 20.38 30.45l.02.49c1.57 4.3 1.66 9.12 1.17 13.47a8.1 8.1 0 0 0-3.03-7.01z"></path><path class="st31" d="M678.97 111.42c-.5-.2-.99-.32-1.47-.41-1.2-5.7-5.6-5.16-13.06-4.67a61.56 61.56 0 0 0-7.95 2.58c-2.01-.67-4.17.24-7.1.89-5.97 1.77-13.03-3.8-15.63-9.8a61.8 61.8 0 0 1 4.69-14.29c4.35-8.96 14.98-13.7 21.98-11.7 6.33 2.33 21 16.33 20.38 30.45l.02.49c1.57 4.3 1.66 9.12 1.17 13.47a8.1 8.1 0 0 0-3.03-7.01zm-48.08 1.5c.73 7.72 7.93 9.63 8.26 21.65.61 5.11.95 10.11.95 10.11 4 .33 3.33-4.67 2.67-10.67-.57-5.17-1.64-10.84-.21-14.86-3.38-3.38-7.86-9.11-9.51-14.88-.01-.01-2.89.93-2.16 8.65z"></path><path class="st31" d="M678.97 111.42c-.5-.2-.99-.32-1.47-.41-1.2-5.7-5.6-5.16-13.06-4.67a61.56 61.56 0 0 0-7.95 2.58c-2.01-.67-4.17.24-7.1.89-5.97 1.77-13.03-3.8-15.63-9.8a61.8 61.8 0 0 1 4.69-14.29c4.35-8.96 14.98-13.7 21.98-11.7 6.33 2.33 21 16.33 20.38 30.45l.02.49c1.57 4.3 1.66 9.12 1.17 13.47a8.1 8.1 0 0 0-3.03-7.01zm-48.08 1.5c.73 7.72 7.93 9.63 8.26 21.65.61 5.11.95 10.11.95 10.11 4 .33 3.33-4.67 2.67-10.67-.57-5.17-1.64-10.84-.21-14.86-3.38-3.38-7.86-9.11-9.51-14.88-.01-.01-2.89.93-2.16 8.65z"></path><path class="st32" d="M630.89 112.92c-.73-7.72 2.15-8.65 2.15-8.65.36 1.27.87 2.53 1.47 3.77-1.61.66-3.6 3.04-3.03 7.62-.29-.84-.49-1.74-.59-2.74zM635.68 103.31a17.65 17.65 0 0 1-1.92-3.31 61.8 61.8 0 0 1 4.69-14.29c4.35-8.96 14.98-13.7 21.98-11.7 2.23.82 5.48 3.09 8.74 6.29-16.61-8.73-31.56 9.74-33.49 23.01z"></path><path class="st4" d="M678.97 111.42c-.5-.2-.99-.32-1.47-.41-1.2-5.7-5.6-5.16-13.06-4.67a61.56 61.56 0 0 0-7.95 2.58c-2.01-.67-4.17.24-7.1.89-5.97 1.77-13.03-3.8-15.63-9.8a61.8 61.8 0 0 1 4.69-14.29c4.35-8.96 14.98-13.7 21.98-11.7 6.33 2.33 21 16.33 20.38 30.45l.02.49c1.57 4.3 1.66 9.12 1.17 13.47a8.1 8.1 0 0 0-3.03-7.01zm-48.08 1.5c.73 7.72 7.93 9.63 8.26 21.65.61 5.11.95 10.11.95 10.11 4 .33 3.33-4.67 2.67-10.67-.57-5.17-1.64-10.84-.21-14.86-3.38-3.38-7.86-9.11-9.51-14.88-.01-.01-2.89.93-2.16 8.65z"></path><path class="st30" d="M664.88 106.31c5.83-1.12 12.08-1.46 16.61.85.92 3.7.92 7.64.51 11.26a8.1 8.1 0 0 0-3.03-7c-.5-.2-.99-.32-1.47-.41-1.17-5.59-5.43-5.18-12.62-4.7zM679.19 125.29a13.18 13.18 0 0 0 2.62-5.43c-.95 6.54-3.07 11.67-3.07 11.67s-.65-1.01-.96-4.78c.48-.4.95-.88 1.41-1.46z"></path><path d="M655.04 113.76c3.42-.72 6.38 1.27 6.62 4.45s-2.35 6.34-5.76 7.06c-3.42.72-6.38-1.27-6.62-4.45s2.34-6.34 5.76-7.06zm14.18 8.54c.18 2.95 2.73 4.58 5.7 3.64s5.23-4.1 5.06-7.06c-.18-2.95-2.73-4.58-5.7-3.64-2.97.95-5.24 4.11-5.06 7.06z" fill="#85c3e9" stroke="#3e4147" stroke-width=".75" stroke-linecap="round" stroke-linejoin="round" stroke-miterlimit="10"></path><g><path class="st12" d="M649.27 120.82a6.72 6.72 0 0 1 2.64-5.56c3 1.98 5.13 5.21 6.02 9.24-.63.35-1.32.62-2.04.77-3.42.72-6.38-1.28-6.62-4.45zM677.93 124a7.21 7.21 0 0 1-3.02 1.94c-2.97.94-5.52-.68-5.7-3.64a6.94 6.94 0 0 1 1.74-4.78c2.72 1.09 5.07 3.34 6.98 6.48z"></path></g><path class="st4" d="M655.04 113.76c3.42-.72 6.38 1.27 6.62 4.45s-2.35 6.34-5.76 7.06c-3.42.72-6.38-1.27-6.62-4.45s2.34-6.34 5.76-7.06zm14.18 8.54c.18 2.95 2.73 4.58 5.7 3.64s5.23-4.1 5.06-7.06c-.18-2.95-2.73-4.58-5.7-3.64-2.97.95-5.24 4.11-5.06 7.06z"></path><g><path class="st9" d="M669.32 118.62l.46-1.51c.12-.46.36-.99.15-1.63a1.05 1.05 0 0 0-.68-.64 1.85 1.85 0 0 0-.76-.05c-.45.07-.77.19-1.09.24-1.28.29-2.01-.09-2.27-.13.03.12.22.36.63.55a3.4 3.4 0 0 0 1.73.18c.36-.03.74-.14 1.08-.17.36-.03.62.05.68.28.09.25-.03.69-.19 1.16l-.46 1.49-.86 2.86c-.24.89-.47 1.55-.98 1.85-.49.33-1.02.37-1.39.35-.38-.03-.62-.13-.76-.12.05.12.25.34.68.49.42.13 1.08.17 1.77-.2.33-.18.67-.51.88-.9.21-.39.34-.82.47-1.25.29-.84.59-1.8.91-2.85z"></path></g><g><path class="st9" d="M662.36 124.15a7.9 7.9 0 0 0 2.43-4.78c.11-1.39-.28-2.23-.47-2.38-.1.24.09 1.06-.13 2.31a8.11 8.11 0 0 1-2.36 4.32 11.83 11.83 0 0 1-4.21 2.76c-1.2.46-2.03.57-2.22.75.22.12 1.1.2 2.41-.18 1.29-.36 3-1.23 4.55-2.8z"></path></g><g><path class="st9" d="M646.69 119.42c.12-2.29.83-4.14 1.45-5.4.63-1.27 1.18-2.01 1.21-2.3-.25.08-.97.73-1.74 2.02a12.49 12.49 0 0 0-1.67 5.65c-.06 1.2.08 2.34.43 3.31a5.6 5.6 0 0 0 1.45 2.27c1.15 1.08 2.25 1.15 2.47 1.04-.19-.2-1.1-.44-2.04-1.46-.96-.99-1.7-2.84-1.56-5.13z"></path></g><g><path class="st9" d="M661.1 131.95c.62-.24.84-.39 1.22-.33.34.04.66.2.93.34.53.3.88.53 1.06.49.03-.18-.19-.55-.73-.99a2.61 2.61 0 0 0-1.16-.54 1.87 1.87 0 0 0-.84.05c-.28.09-.51.22-.69.27-.18.06-.27.03-.37-.04-.1-.07-.18-.22-.24-.39-.12-.33-.15-.73-.22-1.05-.13-.64-.27-1.04-.44-1.12-.14.12-.18.54-.16 1.19.02.32 0 .7.14 1.2.07.24.18.52.46.76.26.23.73.27 1.04.16z"></path></g><g><path class="st9" d="M668.48 129.59c-.18-.75-.5-1.28-.68-1.79a17.3 17.3 0 0 1-.44-1.36c-.22-.79-.33-1.3-.49-1.43-.14.14-.22.7-.1 1.56.06.43.17.93.36 1.48.17.56.49 1.13.62 1.7.14.58-.05.98-.42 1.35l-1.06 1c-.6.59-.95 1.02-.94 1.22.2.02.66-.25 1.33-.76.34-.26.71-.54 1.16-.95.22-.21.46-.48.6-.85.15-.37.15-.79.06-1.17z"></path></g><g><path class="st9" d="M665.91 95.99a61.4 61.4 0 0 0-16.36 5.93c-4.04 2.19-6.33 4.04-6.73 4.52.6-.14 3.02-1.83 7.05-3.92a62.63 62.63 0 0 1 16.19-5.8c1.44-.29 2.87-.47 4.23-.38a9.4 9.4 0 0 1 3.76 1.05c3.02 1.58 4.69 4.08 5.71 5.89 1.01 1.85 1.48 3.13 1.73 3.44a16.1 16.1 0 0 0-3.31-6.9 12.53 12.53 0 0 0-3.79-3.09 10.01 10.01 0 0 0-4.05-1.14c-1.46-.1-2.95.1-4.43.4z"></path></g><g><path class="st9" d="M647.89 88.96a8.96 8.96 0 0 0-2.04-.55 26.32 26.32 0 0 0-5.56-.44 4.9 4.9 0 0 0-2.48.75c.3-.02 1.14-.29 2.49-.29 1.34 0 3.22.26 5.42.65a12.7 12.7 0 0 1 2.58.9l.16.09a7.74 7.74 0 0 1 1.71 1.27 19.88 19.88 0 0 1 3.04 3.88c1.5 2.44 2.66 3.92 3.07 4.15-.2-.45-1.14-1.95-2.55-4.45a18.43 18.43 0 0 0-3.05-4.08 10.21 10.21 0 0 0-1.84-1.4l-.19-.11a5.36 5.36 0 0 0-.76-.37z"></path></g><g><path class="st9" d="M664.45 81.26a11.21 11.21 0 0 0-1.86-2.99 10.75 10.75 0 0 0-2.34-1.94 14.58 14.58 0 0 0-5.27-1.88 9.2 9.2 0 0 0-2.57-.15c.28.14 1.15.27 2.47.6 1.32.33 3.13.84 5.01 2.02.73.48 1.49 1.08 2.16 1.85.68.77 1.24 1.72 1.72 2.8.43.98.76 1.96 1.06 2.87 2.22 6.62 4.19 10.91 4.7 11.49-.06-.83-1.82-5.08-4-11.73-.3-.91-.63-1.91-1.08-2.94z"></path></g><g><path class="st6" d="M652.96 133.32c.97.3 2.3 4.15 3.84 6.25 1.53 2.1 4.82 3.6 7.55 2.81 2.73-.79 2.61-3.4 3.49-4.86.88-1.46 3.11-2.7 3.11-2.7s-2.02.49-4.87.18-6.45.1-8.32-.3a56.12 56.12 0 0 1-4.8-1.38z"></path><path class="st27" d="M664.73 139.84c-.23.03-.44.1-.63.18a8.86 8.86 0 0 0-3.01-.1c-.21-.12-.44-.26-.69-.43-2.71-1.87-4.13-3.33-4.13-3.33l-1.41-1.85s2.6 1.42 3.6 1.59 4.34.01 5.21.06l3.84.18.72-.05.1.24c-1.76 1.23-2.38 3.36-3.6 3.51z"></path><path class="st9" d="M660.11 135.37a9.14 9.14 0 0 0-1-.04 8.75 8.75 0 0 1-2.94-.42c-.76-.34-1.29-1-1.94-1.37a2.84 2.84 0 0 0-1.72-.37c-.44.03-.73.08-.88.13.14.05.44.09.86.14a3 3 0 0 1 1.48.49c.54.34 1.01 1.04 1.94 1.53.92.44 2.03.5 3.15.57.27.04.6.07.96.1l2.69.26c1.91.17 3.66.18 5.11-.16a7.23 7.23 0 0 0 1.89-.73c.52-.31.89-.58 1.25-.44.86.18 1.42.25 1.63.32-.16-.21-.72-.41-1.53-.68-.21-.1-.56-.1-.82 0-.27.09-.51.24-.76.36-.49.25-1.09.44-1.76.58a17.6 17.6 0 0 1-4.9.04c-.81-.11-1.72-.21-2.71-.31z"></path><path class="st9" d="M661.43 139.43c-2.56-.6-3.94-2.6-5.16-3.7-1.19-1.17-1.99-1.88-2.28-1.97.06.3.73 1.14 1.85 2.4.56.62 1.2 1.38 2.05 2.16a7.6 7.6 0 0 0 7.21 1.82c.29-.08.59-.2.85-.4s.44-.45.58-.67c.26-.46.45-.83.68-1.18.88-1.38 1.68-2.1 1.77-2.39-.29.06-1.24.65-2.27 2.04-.26.34-.5.77-.74 1.16a1.6 1.6 0 0 1-1.04.75 7.66 7.66 0 0 1-3.5-.02z"></path></g><g><path class="st9" d="M634.95 120.74c.61.3 1.3.38 1.92.2a2.1 2.1 0 0 0 1.34-1.19c.23-.5.31-.98.39-1.4.08-.43.13-.83.17-1.2.14-1.47.03-2.41-.11-2.65-.16.22-.24 1.15-.49 2.57-.14.69-.26 1.6-.61 2.38-.19.38-.48.66-.9.78a2 2 0 0 1-1.37-.16c-.91-.47-1.51-1.4-2.01-2.19-.49-.81-.84-1.58-1.13-2.25-.57-1.33-.93-2.2-1.15-2.37-.06.27.11 1.18.58 2.58.24.7.57 1.51 1.06 2.38.52.84 1.11 1.88 2.31 2.52z"></path></g><g><path class="st9" d="M617.11 222.73l.89.8.09.08.01.15.02.58.07 2.22.06 3.95c.03 4.55-.03 7.46.14 8.08.22-.57.49-3.51.54-8.08a179 179 0 0 0-.07-6.21l-.02-.58-.02-.44c-.04-.08-.14-.14-.2-.2l-.12-.11-.89-.81a61.27 61.27 0 0 0-3.23-2.67c-5.58-4.27-9.96-6.17-10.71-6.29.57.6 4.74 2.6 10.26 6.87 1 .8 2.08 1.69 3.18 2.66z"></path></g><g><path class="st9" d="M608.29 212.72c1.16.89 2.2 1.67 3.08 2.3 3.68 2.71 6.11 4.32 6.71 4.53-.35-.51-2.69-2.3-6.3-5.07l-3.04-2.35-1.48-1.14c-5.51-4.26-9.15-7.21-9.9-7.47.45.69 3.92 3.73 9.45 8.06l1.48 1.14z"></path></g><g><path class="st9" d="M625.34 219.08l2.22 1.13 1.01.5c.33.17.79.31 1.19.22.68-.15 1.1-.41 1.6-.58l1.37-.5c.87-.29 1.64-.52 2.3-.7 1.32-.36 2.17-.56 2.46-.71-.3-.05-1.19 0-2.55.26a26.82 26.82 0 0 0-3.79 1.04c-.48.15-1.04.43-1.48.51-.44.1-1.07-.37-1.77-.7l-2.21-1.14-2.01-1.02c-6.21-3.16-10.43-5.22-11.21-5.33.58.58 4.64 2.77 10.87 5.98l2 1.04z"></path></g><ellipse transform="rotate(-51.67 656.87 117.21)" class="st27" cx="656.85" cy="117.21" rx=".73" ry="1.6"></ellipse><ellipse transform="rotate(-51.67 676.54 118.03)" class="st27" cx="676.53" cy="118.03" rx=".73" ry="1.6"></ellipse><g><path class="st9" d="M634.96 192.72c2.11 1.89 3.6 3.12 4.01 3.08.01-.41-1.42-1.78-3.51-3.64-2.09-1.87-3.6-3.14-4.01-3.08.02.41 1.4 1.75 3.51 3.64z"></path></g><g><path class="st9" d="M696.83 247.62c-1.9-1.76-3.24-2.91-3.64-2.87-.03.4 1.25 1.67 3.13 3.41.94.87 1.75 1.6 2.38 2.11.3.24.59.48.89.55.3.08.51-.04.53-.14-.2-.06-.46-.21-1-.86a71.1 71.1 0 0 0-2.29-2.2z"></path></g><g><path class="st9" d="M692.1 247.71c-3.41-2.41-5.79-3.98-6.31-3.99.14.48 2.49 2.21 5.88 4.6 3.39 2.39 5.81 4.02 6.31 3.99-.18-.48-2.47-2.19-5.88-4.6z"></path></g><path d="M557.55 94.45a67.23 67.23 0 0 1-10.39-7.79c7.12-1.4 15.48-3.11 22.43-4.71 1.21.86 2.69 1.96 4.51 3.38a62.23 62.23 0 0 0 5.72 3.79c-6.49 1.6-15.94 3.93-22.27 5.33z" fill="#eae4c9" stroke="#3e4147" stroke-width=".75" stroke-linecap="round" stroke-linejoin="round" stroke-miterlimit="10"></path><path d="M571.89 360.13c-.51-3.22-6.1-4.18-8.6-4.35-1.63-.11-4.41 1.66-1.59 2.39-1.92.28-1.79 2.62-.75 1.99-1.67.3-2.41 2.82-.24 2.34-1.88-.06-3.02 2.76-.83 2.33-1.94-.19-1.49 2.47.32 2.49-.91-.01-1.82.93-1.28 1.84.63 1.05 1.73-.22 2.75-.16 2.01.11 3.63 1.99 5.53 2.6.48.15 1.65.7 2.02.18.3-.41-.62-1.95-.94-2.09 2.13.94 2.91-.92 1.04-2.21.96.94 1.69.47 1.59-.74-.08-.96-1.29-1.82-1.81-2.55 2.75 1.55 3.51-1.22 1.34-2.33.4.36.8.36 1.29.44-.3-1.15-1.44-1.87-2.13-2.53.66.57 1.48.98 2.29.53.02-.05.01-.11 0-.17z" fill="#ebdaa7" stroke="#3e4147" stroke-width=".75" stroke-linecap="round" stroke-linejoin="round" stroke-miterlimit="10"></path><g><path class="st9" d="M564.7 367.32a11.3 11.3 0 0 0-4.39-.5c-1.11.11-1.78.37-1.92.54.38.27 2.81-.34 6.09.67 3.27 1.04 4.92 2.94 5.38 2.93-.02-.22-.41-.82-1.26-1.54a11.66 11.66 0 0 0-3.9-2.1z"></path></g><g><path class="st9" d="M565.4 364.69a10.72 10.72 0 0 0-4.74-.44c-1.19.17-1.89.51-2.03.69.22.11.95-.04 2.09-.09 1.14-.06 2.71.01 4.44.56 1.73.56 3.05 1.41 3.94 2.12.9.7 1.41 1.25 1.65 1.29-.01-.23-.38-.91-1.25-1.74a10.48 10.48 0 0 0-4.1-2.39z"></path></g><g><path class="st9" d="M565.53 362.13a11 11 0 0 0-4.67-.13c-1.16.23-1.82.6-1.95.79.23.1.93-.08 2.05-.19 1.11-.12 2.66-.15 4.4.27 1.74.43 3.1 1.16 4.03 1.78.94.61 1.49 1.1 1.74 1.11-.03-.22-.45-.86-1.38-1.6a10.84 10.84 0 0 0-4.22-2.03z"></path></g><g><path class="st9" d="M565.86 359.51a9 9 0 0 0-4.42-.16c-1.15.29-1.62 1.04-1.57 1.25.22-.05.69-.51 1.71-.66 1-.14 2.48-.13 4.09.3 1.62.44 2.89 1.16 3.83 1.67.94.52 1.55.86 1.78.82-.06-.22-.56-.71-1.45-1.33a13.13 13.13 0 0 0-3.97-1.89z"></path></g><g><path class="st9" d="M566.39 357.86a9.8 9.8 0 0 0-4.03-.12c-1 .19-1.58.5-1.69.68.37.24 2.52-.52 5.56.17 3.03.71 4.62 2.34 5.06 2.29-.02-.21-.41-.74-1.22-1.35a9.88 9.88 0 0 0-3.68-1.67z"></path></g><g><path class="st9" d="M560.45 376.7a4.6 4.6 0 0 1-2.28-1.64 11.06 11.06 0 0 1-1.39-2.42 26.48 26.48 0 0 1-1.58-4.82 12.15 12.15 0 0 1-.12-5.34c.3-1.31.81-2.04.89-2.35-.23.17-.9.85-1.33 2.22a11.33 11.33 0 0 0-.11 5.61c.32 1.57.84 3.25 1.58 4.99.38.87.83 1.77 1.48 2.59a5.3 5.3 0 0 0 2.65 1.88c1 .29 1.99.26 2.89.23l2.62-.09c6.51-2.9 9.27-7.44 8.99-8.28-.13.17-.3.56-.66 1.09-.37.52-.92 1.17-1.68 1.9a27.96 27.96 0 0 1-3.75 2.98l-.47.32-.24.16a.64.64 0 0 0-.19.17l-.1.12c-.25.31-.49.57-.78.68-.3.12-.7.13-1.14.14l-2.62.08c-.9.01-1.81.03-2.66-.22z"></path></g><g><path class="st9" d="M563.43 369.38a6.3 6.3 0 0 0-3.19-.07c-.95.24-1.71.69-2.24 1.19-1.1 1.02-1.15 2.08-1.06 2.29.21-.16.42-1.04 1.46-1.84.99-.8 2.8-1.44 4.85-.85 2.02.56 3.61 1.66 4.72 2.37.54.38.9.76 1.12 1.08.21.32.29.58.38.68.06-.11.1-.42-.05-.85a3.49 3.49 0 0 0-1.08-1.38c-.55-.46-1.23-.9-2.03-1.38a11.1 11.1 0 0 0-2.88-1.24z"></path></g><g><path class="st2" d="M498.85 322.15c13.47-6.03 23.01-10.62 31.35-13.24 4.56.9 9.08 2.11 13.45 4.4a78.7 78.7 0 0 1 3.46 1.96 64.32 64.32 0 0 0-2.23 15.15c-8.47 3.74-15.5 8.07-26.6 11.62a61.13 61.13 0 0 1-28.51-15.86c2.89-1.25 5.9-2.6 9.08-4.03z"></path><path class="st36" d="M495.59 323.61c-2 .89-3.93 1.76-5.82 2.57a61.31 61.31 0 0 0 28.51 15.86 114.7 114.7 0 0 0 15.02-6.09s-18.55 1.8-37.71-12.34z"></path><path class="st4" d="M498.85 322.15c13.47-6.03 23.01-10.62 31.35-13.24 4.56.9 9.08 2.11 13.45 4.4a78.7 78.7 0 0 1 3.46 1.96 64.32 64.32 0 0 0-2.23 15.15c-8.47 3.74-15.5 8.07-26.6 11.62a61.13 61.13 0 0 1-28.51-15.86c2.89-1.25 5.9-2.6 9.08-4.03z"></path><path class="st4" d="M500.57 324.63c12.9-6.92 27.66-12.33 27.66-12.33s4.77 3.88 9.19.48a43.69 43.69 0 0 1 9.3 3.97 63.38 63.38 0 0 0-1.72 11.54c-4.75 2-12.11 5.25-21.93 10.03 0 0-5.93-2.02-10.21.1 0 0-8.73-2.71-15.98-8.66-.01 0 5.8-1.67 3.69-5.13z"></path><ellipse transform="rotate(-12.97 523.56 326.57)" class="st4" cx="523.58" cy="326.58" rx="9.69" ry="5.94"></ellipse></g><g><path class="st3" d="M389.84 318.59l3.62 2.62a43.95 43.95 0 0 0-12.53-3.37c2.71-.3 5.7.01 8.91.75zM366.77 336a90.75 90.75 0 0 0-19.67 4.11c1.88-17.52 18.1-24.13 33.83-22.28-7.09.77-12.21 5.7-14.16 18.17z"></path><path class="st2" d="M390.44 310.85c10.01-.87 17.2.35 24.28 4a29.2 29.2 0 0 0-5.49.84c-6.97 1.79-13.5 5.18-19.53 9.11-2.91-2.23-14.14-9.56-29.63-3.76 0 0 11.5-8.37 30.37-10.19z"></path><path class="st4" d="M363.94 318.7c14.43-2.72 22.68 1.9 22.68 1.9s3.27-1.52 7.04-.4c6.44-3.82 11.27-4.83 11.27-4.83s-2.91-.7-1.05-4.17M386.03 311.41c8.24 1.74 3.55 5.21-15.13 4.08"></path><path class="st4" d="M363.7 319.89c-12.1 6.15-13.51 14-13.51 14 2.62.6 1.81 3.02 1.81 3.02s6.44-1.61 10.26-2.21c.2-4.43 3.42-2.41 3.42-2.41s1.18-10.1 8.04-13.35"></path><path class="st4" d="M370.92 318.86c-4.43 2.75-12.21 9.78-10.93 5.86 1.27-3.92 4.94-5.13 4.94-5.13"></path></g><g><path class="st3" d="M377.4 513.45l-.07 3.49a34.38 34.38 0 0 0-3.42-9.56 21.31 21.31 0 0 1 3.49 6.07zM355.92 506.38a70.7 70.7 0 0 0-11.42-10.81c12.1-6.61 23.58.88 29.41 11.81-3.65-4.21-9.1-5.3-17.99-1z"></path><path class="st2" d="M382.64 510.39c5.02 6.05 7.45 11.21 8.26 17.39a22.76 22.76 0 0 0-2.99-3.16c-4.26-3.68-9.35-6.37-14.56-8.49.14-2.87-.16-13.35-10.79-20.72-.01-.01 10.5 3.66 20.08 14.98z"></path><path class="st4" d="M365.78 496.85c8.19 8.06 8.89 15.43 8.89 15.43s2.44 1.42 3.4 4.35c5.33 2.43 8.13 5.09 8.13 5.09s-.85-2.18 2.21-2.54M380.32 507.8c2.55 6.07-1.77 4.61-9.37-7.91"></path><path class="st4" d="M364.91 497.23c-9.35-5.03-15.02-2.44-15.02-2.44.78 1.95-1.13 2.51-1.13 2.51s3.91 3.42 6 5.61c2.94-1.84 3.08 1.12 3.08 1.12s7.02-3.74 12.17-.78"></path><path class="st4" d="M368.79 501.41c-3.74-1.62-11.73-3.48-8.64-4.41s5.5.89 5.5.89"></path></g><g><path class="st2" d="M254.94 391.36c-4.19 2.36-18.73 5.63-31.05-1.18-12.31-6.81-11-8.12-11-8.12s15.19 7.6 23.84 1.31c8.91 6.28 18.21 7.99 18.21 7.99z"></path><path class="st3" d="M216.98 354.68c-.1 1.99-.16 4.11-.16 6.35 0 33.17 23.66 33.63 32.47 32.24-18.76 5.2-50.73-4.14-54.07-33.6a93.43 93.43 0 0 1 21.76-4.99z"></path><path class="st4" d="M225.63 387.02c4.17 1.18 7.89-.25 7.89-.25s2.55.93 4.64-.46c5.1 2.55 9.74 4.64 9.74 4.64s-4.17-.7-2.55 1.39c0 0-6.91 2.54-12.59-.76M223.56 392.3c-7.9-13.65-21.85-19.86-14.88-7.83"></path><path class="st4" d="M238.62 394.62c-9.73-.96-16-6-20.64-15.97-4.64-9.97-3.48-15.31-3.48-15.31s-2.09.46-3.02-4.41l-13.45 2.55c.93 3.71-1.19 5.81-1.19 5.81"></path></g><g><path class="st2" d="M7.12 284.12c4.39-3.01 20.09-8.03 34.31-1.72 14.23 6.3 12.91 7.87 12.91 7.87s-17.48-6.89-26.39.88c-10.41-6.06-20.83-7.03-20.83-7.03z"></path><path class="st3" d="M52.51 320.83c-.08-2.21-.23-4.54-.45-7.01-3.23-36.53-29.33-34.74-38.91-32.35 20.16-7.55 56.29-.37 62.83 31.75a103.72 103.72 0 0 1-23.47 7.61z"></path><path class="st4" d="M39.83 286.05c-4.71-.89-8.67 1.04-8.67 1.04s-2.9-.77-5.06.96c-5.87-2.31-11.18-4.16-11.18-4.16s4.67.36 2.67-1.78c0 0 7.37-3.47 13.95-.39M41.6 280.03c10.03 14.27 26.01 19.75 17.15 7.17"></path><path class="st4" d="M24.78 278.94c10.81.11 18.21 5.05 24.29 15.59s5.32 16.52 5.32 16.52 2.25-.71 3.75 4.56l14.57-4.12c-1.38-4 .75-6.52.75-6.52"></path></g><g><path class="st2" d="M404.23 425.65a126.49 126.49 0 0 0 23.07 8.79c-10.14 9.48-20.38 18.21-30.62 23.92 0 0-14.16-3.62-23.2-9.04 10.57-3.68 20.37-12.84 30.75-23.67z"></path><path class="st36" d="M404.23 425.65a126.49 126.49 0 0 0 23.07 8.79 293.37 293.37 0 0 1-12.69 11.27 256.63 256.63 0 0 0-23.02-7.78c4.17-3.63 8.36-7.81 12.64-12.28z"></path><path class="st4" d="M404.23 425.65a126.49 126.49 0 0 0 23.07 8.79c-10.14 9.48-20.38 18.21-30.62 23.92 0 0-14.16-3.62-23.2-9.04 10.57-3.68 20.37-12.84 30.75-23.67z"></path><path class="st4" d="M420.01 438.61c-2.67-3.2-.27-4.27-.27-4.27l-13.34-5.6c-2.13 2.13-4.27 2.13-4.27 2.13s-12.54 13.6-20.27 17.07c.53 1.6.27 2.93.27 2.93s9.07 4 10.67 4.27c5.33-2.67 8.27-1.33 8.27-1.33s14.21-9.29 18.94-15.2z"></path><ellipse transform="rotate(-30.16 402.2 443.43)" class="st4" cx="402.14" cy="443.41" rx="8.07" ry="4.34"></ellipse></g><g><path class="st2" d="M153.1 418.18a126.28 126.28 0 0 0 18.37 16.49c-12.87 5.21-25.56 9.68-37.17 11.33 0 0-11.92-8.46-18.4-16.77 11.19.35 23.62-4.67 37.2-11.05z"></path><path class="st36" d="M153.1 418.18a126.28 126.28 0 0 0 18.37 16.49 291.95 291.95 0 0 1-15.89 5.96 258.32 258.32 0 0 0-18.69-15.53c5.2-1.89 10.61-4.29 16.21-6.92z"></path><path class="st4" d="M153.1 418.18a126.28 126.28 0 0 0 18.37 16.49c-12.87 5.21-25.56 9.68-37.17 11.33 0 0-11.92-8.46-18.4-16.77 11.19.35 23.62-4.67 37.2-11.05z"></path><path class="st4" d="M163.17 435.94c-1.34-3.95 1.28-4.08 1.28-4.08l-10.43-10.02c-2.76 1.22-4.75.46-4.75.46s-16.59 8.19-25.05 8.65c-.08 1.69-.81 2.83-.81 2.83s7.03 6.99 8.42 7.82c5.94-.57 8.2 1.73 8.2 1.73s16.61-3.57 23.14-7.39z"></path><ellipse transform="rotate(-9.11 144.9 434.1)" class="st4" cx="144.77" cy="434" rx="8.07" ry="4.34"></ellipse></g></g></svg> 